<?xml version="1.0" encoding="UTF-8"?>
<svg version="1.1" xmlns="http://www.w3.org/2000/svg" width="2048" height="2048">
<path d="M0 0 C2.21439599 0.12974266 4.42890863 0.25730054 6.64345932 0.38437271 C10.14845268 0.58617274 13.65290636 0.79570455 17.15709496 1.01101494 C19.06690326 1.12691732 20.97710402 1.23629579 22.88731003 1.34544754 C42.80051099 2.59974328 42.80051099 2.59974328 47.8574791 8.13080215 C50.11120953 11.81872468 50.13372537 15.04317977 49.4590416 19.20111465 C48.42811368 22.50811719 46.5695562 24.08167723 43.8574791 26.13080215 C39.92610784 27.65803964 36.37805915 28.43093571 32.18096542 28.72162247 C31.07368591 28.80245575 29.9664064 28.88328903 28.82557297 28.96657181 C27.6256723 29.04654907 26.42577164 29.12652634 25.18951035 29.20892715 C23.23362007 29.34970982 21.27773067 29.49050527 19.32187557 29.63177586 C17.22470611 29.78207209 15.12731483 29.92886033 13.02984238 30.07486343 C5.55008956 30.59710589 -1.92699727 31.15599628 -9.40423965 31.7128334 C-10.17651272 31.77017214 -10.94878578 31.82751087 -11.74446106 31.88658714 C-89.77001463 37.68913502 -167.57296292 46.37518625 -244.53827286 60.6503334 C-247.35526357 61.17005195 -250.17353205 61.68237523 -252.99213028 62.19330215 C-275.9172986 66.35101759 -298.75752945 70.61120779 -321.38177872 76.20648575 C-325.54458405 77.22962136 -329.71398734 78.22260055 -333.8847084 79.2128334 C-375.29876497 89.07688818 -416.07800439 100.57124801 -456.3925209 114.25580215 C-457.371866 114.58751419 -458.35121109 114.91922623 -459.36023331 115.26099014 C-484.24999644 123.64366734 -484.24999644 123.64366734 -508.41791153 133.87005997 C-511.88172994 135.47285193 -515.3904156 136.95558624 -518.9081459 138.43548965 C-519.59694839 138.72587112 -520.28575089 139.01625259 -520.99542618 139.3154335 C-523.83462301 140.51135553 -526.67478827 141.70494527 -529.51605606 142.89593887 C-544.12515189 149.02494536 -558.40515803 155.60546079 -572.4550209 162.94330215 C-573.03679092 163.24649368 -573.61856094 163.54968521 -574.21796036 163.86206436 C-589.08505659 171.61381731 -603.6488938 179.78586141 -618.0800209 188.31830215 C-619.206017 188.9839418 -620.33201309 189.64958145 -621.49213028 190.335392 C-631.58677481 196.33636268 -641.48488999 202.49224537 -650.9550209 209.44330215 C-652.50683769 210.57387643 -654.05892441 211.7040803 -655.6112709 212.83392715 C-656.37052872 213.3875795 -657.12978653 213.94123184 -657.91205215 214.51166153 C-661.7991757 217.33340007 -665.71722931 220.11183431 -669.63983536 222.88397598 C-672.13334721 224.65528752 -674.54334647 226.46132734 -676.90423965 228.4081459 C-679.1425209 230.13080215 -679.1425209 230.13080215 -681.1425209 230.13080215 C-681.1425209 230.79080215 -681.1425209 231.45080215 -681.1425209 232.13080215 C-682.65423965 233.4706459 -682.65423965 233.4706459 -684.8300209 235.06830215 C-689.66853454 238.70489202 -694.24790701 242.58844323 -698.79950333 246.57391739 C-702.92588756 250.13080215 -702.92588756 250.13080215 -705.1425209 250.13080215 C-705.3900209 250.74955215 -705.6375209 251.36830215 -705.8925209 252.00580215 C-707.3488073 254.48148902 -708.52064597 255.08205218 -711.1425209 256.13080215 C-711.1425209 256.79080215 -711.1425209 257.45080215 -711.1425209 258.13080215 C-712.82107221 259.62709395 -714.56210988 261.05372876 -716.3300209 262.44330215 C-720.1881393 265.48537944 -723.71486348 268.61109074 -727.1425209 272.13080215 C-728.01650528 272.99318497 -728.89048965 273.85556778 -729.7909584 274.7440834 C-736.03533378 280.9258361 -742.08362327 287.16250252 -747.4550209 294.13080215 C-748.0118959 294.79080215 -748.5687709 295.45080215 -749.1425209 296.13080215 C-749.8025209 296.13080215 -750.4625209 296.13080215 -751.1425209 296.13080215 C-751.36295059 296.65931778 -751.58338028 297.1878334 -751.81048965 297.73236465 C-753.6243797 300.99843061 -756.01848125 303.69714821 -758.4550209 306.50580215 C-759.4096599 307.6175994 -760.36408808 308.7295777 -761.31830215 309.84173965 C-761.78679581 310.3845961 -762.25528946 310.92745255 -762.73797989 311.48675919 C-764.14038547 313.12830259 -765.51402669 314.79085937 -766.8847084 316.45892715 C-770.20535777 320.38855374 -771.80621217 320.95262766 -776.8925209 321.63080215 C-782.19875538 321.4927217 -785.35458463 318.5757977 -789.1425209 315.13080215 C-789.74838028 314.58166153 -790.35423965 314.0325209 -790.9784584 313.46673965 C-792.42905706 312.08424423 -793.79456618 310.61355235 -795.1425209 309.13080215 C-795.1425209 308.47080215 -795.1425209 307.81080215 -795.1425209 307.13080215 C-795.8025209 307.13080215 -796.4625209 307.13080215 -797.1425209 307.13080215 C-798.35669365 305.73514293 -799.50044503 304.27800923 -800.6112709 302.7987709 C-805.21299534 296.90436892 -810.32438832 291.68894943 -815.6425209 286.44330215 C-816.54099747 285.54547012 -817.43947403 284.64763809 -818.36517715 283.72259903 C-822.92089565 279.19672149 -827.52959878 274.7978603 -832.42596817 270.6413002 C-834.23588355 269.04864674 -835.90881175 267.36758879 -837.5800209 265.63080215 C-840.68269794 262.48638507 -843.98979356 259.80305449 -847.50580215 257.1347084 C-850.06150052 255.19237765 -852.58651713 253.216382 -855.10614395 251.22772598 C-857.52532722 249.31902774 -859.95144058 247.41921486 -862.3768959 245.51849747 C-864.02199773 244.22552751 -865.66075899 242.92491958 -867.2987709 241.62298965 C-898.79723704 216.88555792 -934.99803292 196.36226241 -971.4237709 179.84173965 C-974.13958328 178.60847928 -976.81615067 177.31162016 -979.4862709 175.98236465 C-996.28417447 167.67614307 -1013.68373773 160.89932625 -1031.1425209 154.13080215 C-1032.93399551 153.43422501 -1032.93399551 153.43422501 -1034.76166153 152.72357559 C-1073.04427826 137.93307428 -1112.50237132 126.47242808 -1152.2675209 116.44330215 C-1153.12032639 116.22672958 -1153.97313187 116.01015701 -1154.85177994 115.78702164 C-1183.00347368 108.66498434 -1211.48628889 103.13355685 -1240.0800209 98.13080215 C-1241.55978168 97.8708768 -1243.0395383 97.61092772 -1244.51929092 97.35095596 C-1337.09588074 81.11745723 -1431.591797 71.92079837 -1557.59955215 66.6034584 C-1558.26782595 66.5810257 -1558.93609974 66.55859299 -1559.62462425 66.5354805 C-1566.9367242 66.29040687 -1574.24895341 66.05237337 -1581.56171036 65.8275795 C-1582.79374695 65.78845947 -1584.02578354 65.74933945 -1585.29515457 65.70903397 C-1587.6050505 65.63574918 -1589.91503606 65.56521478 -1592.22511673 65.49800491 C-1610.72629292 64.9022411 -1610.72629292 64.9022411 -1616.1425209 60.13080215 C-1618.22639976 57.33058995 -1619.17724959 55.44123138 -1619.08392715 51.91986465 C-1618.41597683 47.77444102 -1617.41663187 45.46114101 -1614.7050209 42.19330215 C-1608.07819949 37.48530965 -1597.78143312 37.78648278 -1589.91986465 37.18548965 C-1587.88707829 37.01937029 -1585.85436726 36.8523274 -1583.82172012 36.68451309 C-1582.74235184 36.59633316 -1581.66298355 36.50815323 -1580.55090714 36.41730118 C-1574.45422546 35.90483187 -1568.36337393 35.32912735 -1562.27142715 34.76361465 C-1466.33404888 25.93648738 -1370.34235277 22.15138113 -985.1425209 49.13080215 C-983.73166214 49.37443497 -983.73166214 49.37443497 -982.29230118 49.62298965 C-954.63773754 54.40169054 -927.35194512 60.2594456 -900.1425209 67.13080215 C-898.97402603 67.42501053 -898.97402603 67.42501053 -897.7819252 67.72516251 C-872.75407874 74.03702716 -847.9474455 81.065001 -823.65472794 89.83636856 C-819.84991955 91.20916729 -816.04569504 92.47401166 -812.16205215 93.60736465 C-807.33659463 95.03047673 -802.68687657 96.76468968 -798.0175209 98.63080215 C-795.78060783 99.51552252 -793.54341425 100.39893356 -791.30170059 101.27142715 C-789.87508432 101.83923463 -788.45839549 102.43272566 -787.05365372 103.05267715 C-781.41636423 105.44112913 -777.5716654 105.42025396 -771.70648575 103.21478653 C-768.725188 101.98422414 -765.77805242 100.68902651 -762.8300209 99.38080215 C-752.21674719 94.77959662 -741.51722194 90.49075191 -730.7050209 86.38080215 C-729.675065 85.98834305 -729.675065 85.98834305 -728.62430191 85.58795547 C-724.51954494 84.02527968 -720.41008237 82.47560642 -716.2963295 80.93677139 C-714.83117968 80.38850277 -713.36651606 79.8389335 -711.90228653 79.28821182 C-699.53618048 74.64204969 -687.08018775 70.3394221 -674.5175209 66.25580215 C-673.59507584 65.95498734 -672.67263077 65.65417252 -671.72223282 65.3442421 C-655.58766914 60.09629654 -639.35820923 55.38629323 -622.93819046 51.12097549 C-619.31881019 50.1767906 -615.70376839 49.21791713 -612.09003067 48.25238419 C-611.44269879 48.07972031 -610.79536692 47.90705643 -610.12841892 47.72916031 C-606.94132371 46.8790414 -603.75487372 46.02665551 -600.56930923 45.1708107 C-581.05986811 39.94447935 -561.48796819 35.48000092 -541.67544556 31.56945038 C-539.40718592 31.12135228 -537.13951894 30.67034287 -534.87192154 30.2189064 C-509.09784145 25.09734433 -483.26687276 20.68539107 -457.24554825 16.99994278 C-452.07483874 16.26739188 -446.90853567 15.50775389 -441.74307632 14.73913956 C-372.5746692 4.4478486 -302.64018192 -2.42549556 -232.6893959 -3.81774521 C-229.78829431 -3.87635402 -226.88728842 -3.93889148 -223.9862709 -4.00152206 C-149.2010875 -5.59833938 -74.67743968 -4.39826655 0 0 Z " fill="#000000" transform="translate(1802.142520904541,51.869197845458984)"/>
<path d="M0 0 C0.88349121 0.2475 1.76698242 0.495 2.67724609 0.75 C22.06207034 6.33562219 40.11440079 14.45123222 56 27 C57.39111815 27.96516516 58.78641438 28.92436203 60.1875 29.875 C61.5796875 30.926875 61.5796875 30.926875 63 32 C63 32.66 63 33.32 63 34 C63.57621094 34.25265625 64.15242187 34.5053125 64.74609375 34.765625 C74.03556402 39.85309919 80.72225748 50.67532993 87 59 C87.65097656 59.84433594 88.30195312 60.68867188 88.97265625 61.55859375 C111.14529235 91.50932999 118.7928219 132.23200407 113.40673828 168.59375 C106.60974306 208.80454524 83.96023184 244.08544888 50.91430664 267.76611328 C19.06184489 289.73123017 -20.88334712 299.07851225 -59.10742188 292.47875977 C-91.06557188 286.26961107 -117.60330975 271.294048 -141 249 C-141.67933594 248.36191406 -142.35867188 247.72382813 -143.05859375 247.06640625 C-147.54191627 242.74284578 -151.34853885 238.04004497 -155 233 C-155.37527832 232.48469727 -155.75055664 231.96939453 -156.13720703 231.43847656 C-180.16077236 198.08264282 -187.81434715 158.54182417 -181.41015625 118.29296875 C-174.8046995 81.59164394 -153.62338074 46.90090984 -122.94921875 25.30004883 C-106.88998697 14.4054763 -89.73113947 6.09168408 -71 1 C-70.19755859 0.77699219 -69.39511719 0.55398437 -68.56835938 0.32421875 C-47.66266089 -5.23018851 -20.9251348 -5.99600908 0 0 Z M-121 57 C-121.71542969 57.67546875 -122.43085937 58.3509375 -123.16796875 59.046875 C-125.67415895 61.43947569 -125.67415895 61.43947569 -128 64 C-128 64.66 -128 65.32 -128 66 C-128.66 66 -129.32 66 -130 66 C-132.61003864 69.1249922 -134.76465218 72.60104647 -137 76 C-137.66902344 77.01191406 -138.33804688 78.02382813 -139.02734375 79.06640625 C-156.60878793 106.56904926 -162.37740194 138.68913852 -155.72973633 170.48828125 C-151.6548086 188.63778126 -144.1559957 205.0698366 -133 220 C-132.236875 221.03125 -131.47375 222.0625 -130.6875 223.125 C-129.8521875 224.053125 -129.8521875 224.053125 -129 225 C-128.34 225 -127.68 225 -127 225 C-126.7215625 225.59296875 -126.443125 226.1859375 -126.15625 226.796875 C-117.10528499 244.04263265 -90.43321482 257.8229099 -72.37890625 263.53515625 C-67.95023894 264.83601453 -63.50751354 266.00598606 -59 267 C-57.75827026 267.27928345 -57.75827026 267.27928345 -56.49145508 267.56420898 C-49.08150101 269.08293556 -41.86243725 269.3485674 -34.3125 269.3125 C-33.07588623 269.30686035 -31.83927246 269.3012207 -30.56518555 269.29541016 C-2.75453567 268.92686385 27.01297265 258.0641866 47.0625 238.1875 C48.04810546 237.13097007 49.02820821 236.06924942 50 235 C50.78375 234.236875 51.5675 233.47375 52.375 232.6875 C77.09859306 207.37524996 89.45845753 177.82047449 89.36572266 142.39331055 C88.9395295 113.7816739 77.769013 84.24665674 58.11328125 63.26953125 C56.35251106 61.37857473 54.73432168 59.45494937 53.125 57.4375 C48.99625874 52.6225102 44.03870736 48.81644666 39 45 C38.45730469 44.58814453 37.91460938 44.17628906 37.35546875 43.75195312 C-11.24613901 7.49627101 -78.50764196 16.24356422 -121 57 Z " fill="#000000" transform="translate(733,245)"/>
<path d="M0 0 C0.7017334 0.18723633 1.4034668 0.37447266 2.12646484 0.56738281 C17.88795209 4.80312248 31.64732142 11.92540887 45.24658203 20.85302734 C46.42145396 21.62155259 47.60494894 22.37704482 48.79638672 23.11962891 C50.2315976 24.02813377 51.62125307 25.00789705 53 26 C53 26.66 53 27.32 53 28 C53.67417969 28.185625 54.34835937 28.37125 55.04296875 28.5625 C59.25415867 30.60968348 62.06863435 33.67261566 65.3125 37 C65.95767578 37.64195312 66.60285156 38.28390625 67.26757812 38.9453125 C72 43.73282077 72 43.73282077 72 46 C72.99 46.33 73.98 46.66 75 47 C76.64432276 48.90683744 78.14276386 50.78757418 79.625 52.8125 C80.23601562 53.61397461 80.23601562 53.61397461 80.859375 54.43164062 C82.91947726 57.20459284 84.5139983 59.53933275 85 63 C85.66 63 86.32 63 87 63 C100.5772801 86.81166926 109.76735184 111.38097709 111 139 C111.061875 140.37091797 111.061875 140.37091797 111.125 141.76953125 C112.02177138 182.74077349 94.55221755 220.47976691 67 250 C40.43372642 276.94103293 2.76338887 292.63610357 -34.91723633 293.29272461 C-77.35692514 293.54935879 -113.13151161 277.61606138 -144 249 C-144.64324219 248.43410156 -145.28648438 247.86820313 -145.94921875 247.28515625 C-172.42922684 222.80363933 -186.505411 183.80420277 -187.92602539 148.49047852 C-188.73032141 115.95712481 -178.8248269 83.00912025 -159 57 C-158.39671875 56.20464844 -157.7934375 55.40929687 -157.171875 54.58984375 C-142.86735007 36.24399978 -126.55728073 22.95414604 -106 12 C-104.98873047 11.41992188 -104.98873047 11.41992188 -103.95703125 10.828125 C-73.76178174 -5.6322942 -32.96662731 -9.36664776 0 0 Z M-129.3046875 60.00390625 C-131.21578176 61.81758746 -131.21578176 61.81758746 -131 64 C-131.66 64 -132.32 64 -133 64 C-134.6755677 66.09144602 -136.22477847 68.17734175 -137.75 70.375 C-138.20028564 71.01912842 -138.65057129 71.66325684 -139.11450195 72.3269043 C-140.42089714 74.21052748 -141.71318894 76.10295942 -143 78 C-143.86431641 79.26650391 -143.86431641 79.26650391 -144.74609375 80.55859375 C-160.96647938 105.92217778 -165.83381754 139.10778824 -159.83398438 168.32177734 C-155.07758324 189.70556392 -146.24809851 206.52079703 -132.8203125 223.74609375 C-132.34867676 224.35122803 -131.87704102 224.9563623 -131.39111328 225.57983398 C-129.94552044 227.27173349 -129.94552044 227.27173349 -127 228 C-126.28770545 229.30952613 -125.62469505 230.64649406 -125 232 C-119.43632523 239.07783942 -111.44400038 244.09938225 -104 249 C-103.40074707 249.39509766 -102.80149414 249.79019531 -102.18408203 250.19726562 C-76.26085346 266.88573844 -43.3412667 272.40515894 -13.1875 266.375 C-4.71478178 264.50494154 3.12739175 261.63418512 11 258 C12.16917969 257.47535156 13.33835937 256.95070313 14.54296875 256.41015625 C44.45224298 242.30200803 67.52811614 215.76598606 78.80664062 184.78417969 C80.44618665 179.91529036 81.80023568 174.99409918 83 170 C83.24621094 168.98421875 83.49242187 167.9684375 83.74609375 166.921875 C88.82650401 140.71396552 83.79439433 114.93738373 73 91 C72.33291016 89.48986328 72.33291016 89.48986328 71.65234375 87.94921875 C66.78222806 77.5981593 59.84612072 67.32499193 52 59 C51.34 59 50.68 59 50 59 C49.7834375 58.43925781 49.566875 57.87851562 49.34375 57.30078125 C38.89455322 39.40956931 9.88418067 28.31917405 -9 23 C-53.17931585 11.77661722 -97.88108178 28.42873973 -129.3046875 60.00390625 Z " fill="#000000" transform="translate(1380,246)"/>
<path d="M0 0 C2.3359375 2.16015625 2.3359375 2.16015625 4 4 C3.030625 3.938125 2.06125 3.87625 1.0625 3.8125 C-6.34240305 3.8424188 -13.71568315 6.78728636 -19 12 C-22.93850768 18.09833448 -22.82100517 24.91664685 -22 32 C-20.96048069 35.01085999 -19.67760417 37.25482954 -18 40 C-17.67 40.99 -17.34 41.98 -17 43 C-14.6569191 44.12085312 -14.6569191 44.12085312 -12 45 C-11.41605469 45.34289062 -10.83210937 45.68578125 -10.23046875 46.0390625 C-4.54254316 48.48955234 3.00565511 47.79086091 8.625 45.5625 C9.40875 45.046875 10.1925 44.53125 11 44 C11.99 43.67 12.98 43.34 14 43 C14.72904086 41.35965807 15.38655243 39.68698082 16 38 C16.50144531 37.25878906 17.00289062 36.51757812 17.51953125 35.75390625 C19.30326054 32.43588739 19.49832793 29.93310691 19.6875 26.1875 C19.75324219 25.02605469 19.81898438 23.86460937 19.88671875 22.66796875 C19.92410156 21.78753906 19.96148438 20.90710938 20 20 C29.36718529 28.74270628 32.53380861 43.20998078 33.12109375 55.54296875 C33.56896113 74.22167321 27.00468701 92.31015527 14.15234375 105.9765625 C0.26512241 119.03206278 -17.6144526 125.39205101 -36.4609375 125.21875 C-54.44625258 124.1070749 -71.10517255 116.24802364 -83.41796875 103.03125 C-95.38262056 87.66922792 -101.70455055 69.52523071 -99.56640625 50.05078125 C-96.28339127 32.0034729 -87.4264244 15.09524437 -72.40625 4.1015625 C-50.91255031 -10.20744544 -22.99982058 -12.56801341 0 0 Z " fill="#000000" transform="translate(732,332)"/>
<path d="M0 0 C2.3359375 2.16015625 2.3359375 2.16015625 4 4 C3.23816406 4.01417969 2.47632813 4.02835937 1.69140625 4.04296875 C-5.58246924 4.3789655 -11.20617536 5.39685543 -17 10 C-22.06453829 15.61319661 -22.34998703 21.44296254 -22.27734375 28.69921875 C-21.7702185 34.73472351 -19.55122303 38.86182644 -15.0625 42.875 C-8.60003223 47.35916131 -2.71815515 47.81998992 5 47 C11.03046293 45.08072066 14.85079312 40.45708723 18.09765625 35.234375 C19.31029216 32.23165751 19.43150362 29.47493966 19.625 26.25 C19.69976563 25.07953125 19.77453125 23.9090625 19.8515625 22.703125 C19.92503906 21.36507813 19.92503906 21.36507813 20 20 C30.22099773 29.54827813 32.76662727 44.94653085 33.3125 58.375 C33.09218743 76.00000592 26.20830203 93.2580017 14 106 C2.31801894 117.19268342 -12.93363639 123.70432552 -29 125 C-29.95519531 125.07927734 -29.95519531 125.07927734 -30.9296875 125.16015625 C-50.77024277 126.02116148 -66.5204903 117.64765507 -81.12890625 105.18359375 C-94.17646651 93.07008702 -99.62401304 75.4806087 -100.3125 58.125 C-99.69036427 37.82372865 -90.65616447 20.94659633 -76.0625 7.1875 C-55.3954605 -10.70713176 -23.85415842 -13.03485746 0 0 Z " fill="#000000" transform="translate(1375,332)"/>
<path d="M0 0 C2.82932191 2.59410512 3.9788462 4.75228476 4.14453125 8.5078125 C4.0042162 12.54709464 3.01576332 15.13603421 1.0234375 18.63671875 C0.47768066 19.59980957 -0.06807617 20.56290039 -0.63037109 21.55517578 C-3.35103922 26.21180758 -6.10417924 30.84427297 -8.91796875 35.4453125 C-9.52439209 36.43966309 -10.13081543 37.43401367 -10.75561523 38.45849609 C-15.22237472 45.74560405 -19.83065455 52.92965494 -24.52075195 60.07446289 C-29.05525004 66.99662851 -33.41837892 74.01658974 -37.75537109 81.0637207 C-41.48784752 87.12373988 -45.29603314 93.12604967 -49.16796875 99.09765625 C-51.23181704 102.29454213 -53.23332647 105.52827451 -55.23291016 108.765625 C-66.745131 127.37054097 -66.745131 127.37054097 -72.35546875 129.5078125 C-76.89419005 130.01211487 -79.26908301 129.99557753 -83.41796875 128.1328125 C-90.50085501 121.80342478 -95.13305021 112.77923767 -99.98046875 104.6953125 C-101.2077175 102.66499221 -102.43559628 100.63505263 -103.6640625 98.60546875 C-104.58614502 97.08010498 -104.58614502 97.08010498 -105.52685547 95.52392578 C-112.53246288 83.96888254 -119.66487021 72.49875097 -127.04492188 61.17919922 C-133.63117047 51.05034721 -139.9792548 40.76959026 -146.35546875 30.5078125 C-146.82243164 29.75757813 -147.28939453 29.00734375 -147.77050781 28.234375 C-148.90526425 26.41024737 -150.03748185 24.58458826 -151.16796875 22.7578125 C-151.75191406 21.81421875 -152.33585938 20.870625 -152.9375 19.8984375 C-155.76390945 15.13325131 -157.66153726 11.16765847 -156.35546875 5.5078125 C-151.98852067 -1.7395205 -145.45517485 -4.95691487 -137.91796875 -8.1796875 C-136.31888672 -8.88448242 -136.31888672 -8.88448242 -134.6875 -9.60351562 C-92.53020604 -27.85640196 -38.34249731 -28.60143043 0 0 Z M-126.35546875 13.5078125 C-125.0275122 17.09584894 -123.43438349 20.17448735 -121.35546875 23.3828125 C-120.73800781 24.33800781 -120.12054687 25.29320312 -119.484375 26.27734375 C-117.10536677 29.88732505 -114.70038889 33.47925541 -112.29296875 37.0703125 C-109.07554253 41.87228982 -105.95958044 46.7004387 -103.02734375 51.68359375 C-100.77891603 55.48175553 -98.47287539 59.24373033 -96.16796875 63.0078125 C-93.20641119 67.84466569 -90.24714414 72.68274476 -87.3046875 77.53125 C-86.81057373 78.34400391 -86.31645996 79.15675781 -85.80737305 79.99414062 C-84.86060982 81.55175479 -83.91538518 83.11030551 -82.97192383 84.66992188 C-82.54161865 85.37697266 -82.11131348 86.08402344 -81.66796875 86.8125 C-81.29285156 87.43108887 -80.91773438 88.04967773 -80.53125 88.68701172 C-79.22972109 90.70254382 -77.81430392 92.60386444 -76.35546875 94.5078125 C-68.23660835 82.12939769 -60.17158627 69.72855315 -52.37402344 57.14501953 C-50.92616886 54.81776335 -49.45493495 52.50577987 -47.98046875 50.1953125 C-36.94970516 32.98634245 -36.94970516 32.98634245 -26.35546875 15.5078125 C-28.55054241 13.04504693 -30.39809127 11.89087979 -33.49609375 10.7890625 C-34.71872925 10.35219116 -34.71872925 10.35219116 -35.96606445 9.90649414 C-67.16241096 -0.71544199 -96.02517432 0.32394825 -126.35546875 13.5078125 Z " fill="#000000" transform="translate(1101.35546875,487.4921875)"/>
<path d="M0 0 C1.1859375 -0.02900391 2.371875 -0.05800781 3.59375 -0.08789062 C14.35609791 -0.16666907 14.35609791 -0.16666907 19 4.3125 C23.06363263 10.81329828 21.34322538 19.52145469 19.78515625 26.62597656 C19.22526642 28.90526034 18.65024064 31.18086355 18.0625 33.453125 C17.59541626 35.32935295 17.59541626 35.32935295 17.11889648 37.2434845 C16.27221184 40.64362169 15.40845581 44.03920594 14.54150391 47.43422318 C13.62141399 51.05045942 12.71778677 54.67080673 11.8125 58.29077148 C10.30238258 64.3214016 8.78333275 70.34971355 7.2578125 76.37646484 C5.13275605 84.77378733 3.03107266 93.17681146 0.9375 101.58203125 C0.28013596 104.22016005 -0.37735518 106.85825716 -1.03491211 109.49633789 C-1.19677222 110.14575946 -1.35863234 110.79518103 -1.5253973 111.46428204 C-3.34538469 118.76419512 -5.17460575 126.06179127 -7.00390625 133.359375 C-9.49818974 143.31040497 -11.98736292 153.26268838 -14.46950912 163.21675301 C-21.42186949 191.09684299 -28.42012656 218.96449914 -35.5 246.8125 C-41.20675106 269.26085242 -46.88125461 291.71694431 -52.5 314.1875 C-52.66851597 314.8612693 -52.83703194 315.5350386 -53.01065445 316.22922516 C-57.47462011 334.07951319 -61.91462408 351.93545908 -66.17578125 369.83544922 C-67.79288167 376.57648181 -69.52241621 383.26728439 -71.40625 389.9375 C-74.02341456 399.2207682 -76.32389004 408.57058948 -78.58898926 417.94509888 C-79.88621133 423.31033889 -81.19509324 428.67273393 -82.50390625 434.03515625 C-82.78334076 435.18038254 -83.06277527 436.32560883 -83.35067749 437.50553894 C-86.76477637 451.47505119 -90.25617196 465.42526708 -93.75 479.375 C-93.91651188 480.03991077 -94.08302376 480.70482155 -94.25458145 481.38988113 C-95.7896534 487.51959933 -97.32511215 493.64922056 -98.86125183 499.77867126 C-101.16630378 508.97726572 -103.46508161 518.17741109 -105.75992584 527.37855721 C-106.8252624 531.6496177 -107.89126169 535.92051285 -108.95718002 540.19142818 C-109.79654999 543.5548903 -110.63553368 546.91844764 -111.47351074 550.28225708 C-115.25249693 565.44774593 -119.08937802 580.59680621 -123.00645447 595.72712708 C-126.57001981 609.49421998 -130.06781272 623.27779142 -133.5625 637.0625 C-134.25912634 639.80863207 -134.95596301 642.55471075 -135.65283203 645.30078125 C-136.00860618 646.70275873 -136.3643801 648.10473627 -136.72015381 649.50671387 C-136.98555088 650.55253883 -136.98555088 650.55253883 -137.25630951 651.61949158 C-137.7923737 653.73203 -138.32835591 655.84458921 -138.86431885 657.95715332 C-141.15287059 666.97734879 -143.44425744 675.99681932 -145.73828125 685.015625 C-146.03921188 686.19872253 -146.34014252 687.38182007 -146.65019226 688.60076904 C-147.2558471 690.98177396 -147.86151418 693.36277575 -148.4671936 695.74377441 C-152.86056891 713.01480371 -157.24858542 730.28716601 -161.625 747.5625 C-162.02397269 749.13720803 -162.42294934 750.71191506 -162.82192993 752.28662109 C-165.15528597 761.49612992 -165.15528597 761.49612992 -167.48699951 770.70605469 C-168.56103698 774.95002404 -169.63565346 779.19384632 -170.7109375 783.4375 C-170.88645079 784.13019171 -171.06196407 784.82288342 -171.24279594 785.53656578 C-173.80400835 795.6405191 -176.39204625 805.73736359 -178.99413109 815.83086205 C-182.92666153 831.08558641 -186.79227346 846.35557499 -190.60110474 861.64175415 C-191.60776157 865.68164253 -192.61605963 869.72111854 -193.62475586 873.76049805 C-196.09496894 883.6538712 -198.56248428 893.54791684 -201.02978516 903.4420166 C-225.50587761 1001.5917811 -225.50587761 1001.5917811 -237.28967285 1046.27011108 C-241.55482903 1062.45721332 -245.62215372 1078.69109453 -249.66357422 1094.93530273 C-254.46910391 1114.24217371 -259.35290732 1133.5286935 -264.25 1152.8125 C-265.7907585 1158.88010838 -267.33127487 1164.9477781 -268.87109375 1171.015625 C-269.05436848 1171.7378229 -269.2376432 1172.46002079 -269.42647171 1173.20410347 C-272.41518062 1184.98360589 -275.3770367 1196.76961394 -278.3125 1208.5625 C-280.46861619 1217.216458 -282.62643927 1225.86950748 -284.875 1234.5 C-285.05458252 1235.19577148 -285.23416504 1235.89154297 -285.41918945 1236.60839844 C-285.92260475 1238.51612815 -286.46108412 1240.41449334 -287 1242.3125 C-287.22848633 1243.11896973 -287.45697266 1243.92543945 -287.69238281 1244.75634766 C-287.94084961 1245.57538574 -288.18931641 1246.39442383 -288.4453125 1247.23828125 C-288.66977051 1247.99149658 -288.89422852 1248.74471191 -289.12548828 1249.52075195 C-289.41407715 1250.11202881 -289.70266602 1250.70330566 -290 1251.3125 C-290.99 1251.6425 -291.98 1251.9725 -293 1252.3125 C-293 1252.9725 -293 1253.6325 -293 1254.3125 C-296.57395698 1255.95027417 -299.16480853 1256.53015412 -303.08154297 1256.31103516 C-304.07727325 1256.26264496 -305.07300354 1256.21425476 -306.09890747 1256.16439819 C-307.17743988 1256.10241241 -308.25597229 1256.04042664 -309.3671875 1255.9765625 C-311.73002225 1255.86365026 -314.09298582 1255.7534095 -316.45605469 1255.64550781 C-318.31321106 1255.55903992 -318.31321106 1255.55903992 -320.20788574 1255.4708252 C-331.83910056 1254.9852084 -343.48561991 1254.86525826 -355.125 1254.6875 C-356.18910158 1254.67114754 -356.18910158 1254.67114754 -357.27470016 1254.65446472 C-447.17124483 1253.29397071 -536.34737513 1259.01906324 -644 1271.3125 C-643.36200386 1273.87390805 -642.72340938 1276.43516445 -642.08447266 1278.99633789 C-641.90501602 1279.71707741 -641.72555939 1280.43781693 -641.54066467 1281.18039703 C-631.58145989 1321.08057349 -613.98616334 1359.47249292 -589.01953125 1392.26953125 C-588.31872437 1393.20188599 -588.31872437 1393.20188599 -587.60375977 1394.15307617 C-586.73499697 1395.29821364 -585.84993874 1396.43127065 -584.94506836 1397.5480957 C-581.57813597 1401.982745 -581.47845784 1404.9598305 -582 1410.3125 C-584.20471448 1414.64027286 -586.40299806 1417.57585482 -591 1419.3125 C-596.25845261 1419.82625686 -600.0441963 1418.72680576 -604.125 1415.375 C-608.45871987 1411.14325001 -611.69323171 1406.3613397 -615 1401.3125 C-615.92760373 1399.95040151 -616.85747175 1398.58984348 -617.7890625 1397.23046875 C-623.95757285 1388.18266015 -629.70107299 1379.02015883 -634.88476562 1369.37402344 C-636.03340628 1367.25074811 -637.21077123 1365.14512997 -638.390625 1363.0390625 C-651.90077462 1338.57863733 -669 1303.88417371 -669 1275.3125 C-704.39094744 1280.65824826 -739.55639601 1286.8488369 -774.5 1294.625 C-775.45657501 1294.8377356 -776.41315002 1295.05047119 -777.39871216 1295.26965332 C-790.74035829 1298.23185337 -790.74035829 1298.23185337 -803.92382812 1301.82104492 C-806 1302.3125 -806 1302.3125 -810 1302.3125 C-809.91838623 1303.55040283 -809.83677246 1304.78830566 -809.75268555 1306.0637207 C-808.83490533 1321.5703492 -809.17016312 1336.94709561 -809.73864746 1352.46228409 C-809.83876604 1355.22472437 -809.93301556 1357.98735461 -810.02752876 1360.74999142 C-810.33113473 1369.60496459 -810.66144869 1378.45879758 -811 1387.3125 C-811.04445251 1388.48848755 -811.08890503 1389.6644751 -811.13470459 1390.87609863 C-811.36926359 1397.05174176 -811.61508448 1403.22671593 -811.88241577 1409.40103149 C-811.95980711 1411.19388731 -812.03507973 1412.98683604 -812.10806274 1414.77987671 C-813.06343362 1437.86631089 -813.06343362 1437.86631089 -817.375 1443.3125 C-822.71686108 1447.3824894 -822.71686108 1447.3824894 -827.4375 1447.125 C-831.94782195 1446.09633008 -834.73874997 1444.91760662 -837.62353516 1441.24633789 C-839.45275387 1437.347487 -839.37688551 1433.83423711 -839.2734375 1429.62109375 C-839.25668472 1428.313433 -839.25668472 1428.313433 -839.23959351 1426.97935486 C-839.05642449 1416.60506412 -838.44275755 1406.24651559 -837.83169556 1395.89038086 C-836.58610497 1374.70596165 -835.58234733 1353.51940517 -834.8125 1332.3125 C-834.76998108 1331.14228302 -834.72746216 1329.97206604 -834.68365479 1328.76638794 C-834.44949727 1322.28196874 -834.22176228 1315.79735446 -834 1309.3125 C-855.61161799 1315.19314056 -876.82284436 1322.03779561 -898 1329.3125 C-899.02764465 1329.66471619 -899.02764465 1329.66471619 -900.0760498 1330.02404785 C-915.48207721 1335.30859221 -930.76895539 1340.87911126 -945.9375 1346.8125 C-946.62946472 1347.08298157 -947.32142944 1347.35346313 -948.03436279 1347.63214111 C-958.27299905 1351.65374237 -968.31236038 1356.00408969 -978.09155273 1361.0625 C-985.3613423 1364.63536586 -992.10237396 1366.27828645 -1000.02459717 1363.63766479 C-1004.01277241 1362.09709217 -1007.90344546 1360.35282418 -1011.80126953 1358.59863281 C-1017.05129465 1356.24525475 -1022.39198658 1354.23873857 -1027.80859375 1352.3046875 C-1028.73876312 1351.97213455 -1029.6689325 1351.6395816 -1030.62728882 1351.29695129 C-1033.56179196 1350.2540208 -1036.49919031 1349.2196542 -1039.4375 1348.1875 C-1040.46758179 1347.824216 -1041.49766357 1347.46093201 -1042.55895996 1347.0866394 C-1072.60778876 1336.50461871 -1102.88662956 1326.71614812 -1133.64941406 1318.41821289 C-1134.70226341 1318.13376312 -1134.70226341 1318.13376312 -1135.77638245 1317.84356689 C-1137.6405814 1317.34179793 -1139.50614609 1316.84511044 -1141.37182617 1316.34887695 C-1145.6283758 1315.13300634 -1149.81195501 1313.74405521 -1154 1312.3125 C-1155.03108416 1324.31819462 -1156.05228564 1336.32471081 -1157.06602478 1348.33188248 C-1157.22981376 1350.27104498 -1157.39380375 1352.21019052 -1157.55799866 1354.1493187 C-1159.74027087 1379.92687428 -1161.83289218 1405.68668643 -1163.0246582 1431.53295898 C-1163.09439598 1432.89609726 -1163.09439598 1432.89609726 -1163.1655426 1434.28677368 C-1163.24888862 1435.92187396 -1163.32207259 1437.55754921 -1163.38145447 1439.19369507 C-1163.64901037 1444.27607196 -1164.67899596 1447.85810758 -1167 1452.3125 C-1170.23736893 1455.1819861 -1172.20280958 1456.2128512 -1176.5 1456.75 C-1181.23068663 1456.15866417 -1184.55776246 1455.05768203 -1187.65161133 1451.31396484 C-1189.58885803 1447.00172314 -1189.40886439 1443.15252164 -1189.32421875 1438.4765625 C-1189.31428391 1437.47468903 -1189.30434906 1436.47281555 -1189.29411316 1435.44058228 C-1189.07079731 1422.21073192 -1188.0188605 1409.02172745 -1186.98070908 1395.83603287 C-1186.81050322 1393.66199516 -1186.64378385 1391.4877168 -1186.47817993 1389.31332397 C-1184.34188368 1361.2790648 -1181.79352349 1333.28905388 -1179 1305.3125 C-1180.13711426 1305.18810547 -1181.27422852 1305.06371094 -1182.44580078 1304.93554688 C-1186.9989416 1304.36404903 -1191.40447975 1303.3965379 -1195.8671875 1302.34375 C-1197.63240432 1301.93703153 -1199.39779365 1301.53106124 -1201.16333008 1301.12573242 C-1202.55595566 1300.80480118 -1202.55595566 1300.80480118 -1203.97671509 1300.47738647 C-1240.33688025 1292.13611473 -1277.1004327 1285.75373658 -1314 1280.3125 C-1314.12963135 1281.04718506 -1314.2592627 1281.78187012 -1314.39282227 1282.53881836 C-1314.95442696 1285.10431532 -1315.69191605 1287.28050606 -1316.71484375 1289.69140625 C-1317.06562988 1290.51938721 -1317.41641602 1291.34736816 -1317.77783203 1292.20043945 C-1328.62141984 1317.20917724 -1341.37630822 1340.72488807 -1357.73583984 1362.61572266 C-1359.1462023 1364.50873523 -1360.53579114 1366.41620306 -1361.92578125 1368.32421875 C-1367.17296017 1375.47877737 -1372.5537828 1382.25291095 -1378.62890625 1388.7265625 C-1381.08107788 1391.40092431 -1383.3562898 1394.16895992 -1385.625 1397 C-1396.34151307 1410.23916128 -1396.34151307 1410.23916128 -1402 1412.3125 C-1406.7873893 1412.16690855 -1410.29658828 1410.88402203 -1414 1407.875 C-1416.90270525 1404.15590889 -1417.36344922 1401.04282943 -1417.26953125 1396.35546875 C-1416.48741171 1390.42722933 -1411.24226181 1386.50856125 -1407.19140625 1382.5546875 C-1403.13976451 1378.40915744 -1399.61432767 1373.8375695 -1396 1369.3125 C-1395.08595703 1368.19943422 -1394.17053869 1367.08749677 -1393.25390625 1365.9765625 C-1381.77358687 1351.97725668 -1371.22705523 1337.19464589 -1362.23828125 1321.46826172 C-1360.79108379 1318.94879138 -1359.31626147 1316.44616225 -1357.84375 1313.94140625 C-1356.70712749 1311.98247 -1355.57171054 1310.02283375 -1354.4375 1308.0625 C-1353.91921631 1307.18295654 -1353.40093262 1306.30341309 -1352.86694336 1305.3972168 C-1347.72699347 1296.4081426 -1343.8873736 1286.89034004 -1340 1277.3125 C-1366.95998111 1273.99613497 -1393.88941228 1271.05704539 -1421 1269.3125 C-1421.76566284 1269.26264954 -1422.53132568 1269.21279907 -1423.32019043 1269.16143799 C-1467.14999833 1266.33672714 -1511.15796576 1265.88277584 -1555.0625 1266.6875 C-1556.8290947 1266.71935898 -1556.8290947 1266.71935898 -1558.63137817 1266.75186157 C-1574.58540027 1267.03614176 -1574.58540027 1267.03614176 -1590.50195312 1268.09130859 C-1603.330414 1269.22721414 -1603.330414 1269.22721414 -1609 1265.3125 C-1612.15659174 1261.83915986 -1613.72943284 1258.88880508 -1615.00805664 1254.38989258 C-1615.33895294 1253.24154938 -1615.66984924 1252.09320618 -1616.01077271 1250.9100647 C-1616.33721771 1249.72286835 -1616.66366272 1248.535672 -1617 1247.3125 C-1617.31395721 1246.18597015 -1617.62791443 1245.05944031 -1617.9513855 1243.89877319 C-1618.94218449 1240.29509999 -1619.90937791 1236.68575827 -1620.87109375 1233.07421875 C-1621.2327183 1231.72356172 -1621.59457662 1230.37296726 -1621.95664978 1229.02243042 C-1622.72210132 1226.16563147 -1623.48613808 1223.30845984 -1624.2489624 1220.45095825 C-1626.0730451 1213.61811151 -1627.90373494 1206.78703343 -1629.73379517 1199.95578575 C-1630.34714874 1197.66595718 -1630.96020213 1195.37604838 -1631.57324219 1193.08613586 C-1633.82287971 1184.68576256 -1636.08438636 1176.28881318 -1638.37109375 1167.8984375 C-1638.62388596 1166.97076569 -1638.87667816 1166.04309387 -1639.13713074 1165.08731079 C-1639.6359337 1163.25715821 -1640.13474843 1161.42700882 -1640.63357544 1159.59686279 C-1648.55452265 1130.51806954 -1656.16767528 1101.35772251 -1663.82219315 1072.20797729 C-1667.52915154 1058.09194229 -1671.25431112 1043.980813 -1675 1029.875 C-1675.38499664 1028.42480469 -1675.38499664 1028.42480469 -1675.777771 1026.9453125 C-1678.5340103 1016.56558624 -1681.29887765 1006.1881788 -1684.0703125 995.8125 C-1684.83580369 992.94640597 -1685.60128551 990.08030945 -1686.36672974 987.21420288 C-1686.86966109 985.33106935 -1687.3726512 983.44795151 -1687.8757019 981.56484985 C-1691.71030101 967.20626518 -1695.49095819 952.83417297 -1699.24316406 938.45385742 C-1702.64718082 925.41206516 -1706.11674919 912.38911389 -1709.625 899.375 C-1712.91079732 887.18557666 -1716.13472217 874.98409363 -1719.25 862.75 C-1723.1062604 847.61267915 -1727.1349073 832.52333072 -1731.1875 817.4375 C-1735.98752222 799.56558585 -1740.77381497 781.69035315 -1745.50283813 763.79949951 C-1746.06649917 761.66709798 -1746.63057738 759.53480666 -1747.19515991 757.40264893 C-1750.61682715 744.47751397 -1753.97586072 731.53721525 -1757.296875 718.5859375 C-1761.86671546 700.76624319 -1766.53953355 682.97436013 -1771.23227692 665.1866951 C-1772.99590933 658.50040271 -1774.75724607 651.81350481 -1776.51893234 645.12669945 C-1776.95256738 643.48082564 -1777.38624473 641.83496297 -1777.81996536 640.18911171 C-1781.05490214 627.9132472 -1784.27380597 615.63328818 -1787.47918701 603.34967041 C-1791.21010104 589.05329867 -1795.01851371 574.779956 -1798.88903809 560.52075195 C-1802.33463787 547.82474903 -1805.67333285 535.10442267 -1808.95410156 522.36474609 C-1811.20513997 513.63530386 -1813.4774506 504.91136181 -1815.75 496.1875 C-1816.00679535 495.20148804 -1816.2635907 494.21547607 -1816.52816772 493.19958496 C-1820.18748162 479.15818124 -1823.91027373 465.13510911 -1827.6875 451.125 C-1833.35330736 430.10165436 -1838.85605933 409.0377137 -1844.08984375 387.90234375 C-1844.25928497 387.21823929 -1844.4287262 386.53413483 -1844.603302 385.82929993 C-1844.77159515 385.14981796 -1844.93988831 384.470336 -1845.11328125 383.77026367 C-1847.66937615 373.45277007 -1850.2628267 363.15827611 -1853.1875 352.9375 C-1856.76901 340.40805498 -1860.03984178 327.80046206 -1863.3125 315.1875 C-1863.69733047 313.70555145 -1863.69733047 313.70555145 -1864.0899353 312.19366455 C-1867.46217674 299.19939294 -1870.79973102 286.19629389 -1874.13035965 273.19131088 C-1879.08309903 253.85349728 -1884.08331012 234.52827281 -1889.10144043 215.20733643 C-1896.22005402 187.79778447 -1903.31677435 160.38313131 -1910.30883789 132.940979 C-1912.1966831 125.53392699 -1914.0999453 118.13086943 -1916.00552368 110.72836304 C-1916.5512965 108.60606604 -1917.09557949 106.48339261 -1917.6394043 104.3605957 C-1919.42697126 97.38849151 -1921.23078159 90.42121861 -1923.06752014 83.46188354 C-1924.00957294 79.88762144 -1924.94412766 76.31141868 -1925.87789917 72.73498535 C-1926.3290379 71.01505538 -1926.78364765 69.29603155 -1927.24197388 67.57800293 C-1927.87987651 65.18575755 -1928.50557589 62.79060844 -1929.12890625 60.39453125 C-1929.31904297 59.6939711 -1929.50917969 58.99341095 -1929.70507812 58.2716217 C-1931.23509482 52.30709884 -1932.20351204 46.67494957 -1929.3125 41 C-1926.01626973 37.16924591 -1923.59274687 35.48179943 -1918.49731445 34.94018555 C-1917.11936025 34.92730994 -1915.7411817 34.93150087 -1914.36328125 34.94921875 C-1913.59856506 34.94781387 -1912.83384888 34.946409 -1912.04595947 34.94496155 C-1909.46777532 34.94635297 -1906.89052565 34.97204695 -1904.3125 35 C-1902.43286191 35.01148931 -1900.55322322 35.02287961 -1898.67358398 35.03417969 C-1859.8188155 35.34941911 -1820.98550861 37.29065028 -1782.17872238 39.12385559 C-1779.5617527 39.24709199 -1776.94471889 39.36887473 -1774.32766724 39.49035645 C-1734.35492205 41.35429427 -1694.53718118 44.35337383 -1654.71414185 48.27100754 C-1651.68574687 48.56881863 -1648.65721699 48.86522726 -1645.62866211 49.16140747 C-1572.05389594 56.36507292 -1498.74725639 64.97212847 -1426 78.3125 C-1424.96443592 78.50229053 -1424.96443592 78.50229053 -1423.90795135 78.69591522 C-1341.87316813 93.7394693 -1341.87316813 93.7394693 -1303 103.3125 C-1302.2478421 103.49710785 -1301.4956842 103.6817157 -1300.72073364 103.87191772 C-1250.23995309 116.29061353 -1200.1058709 129.69231376 -1151.02238464 146.86549377 C-1146.03704413 148.60902715 -1141.04257634 150.32099328 -1136.03515625 152 C-1120.11326037 157.35771003 -1104.48823706 163.31942596 -1088.95117188 169.69433594 C-1085.55969055 171.08556649 -1082.16257674 172.4624869 -1078.76402283 173.83633423 C-1054.15507 183.79139564 -1029.6256855 194.10439628 -1006.02050781 206.28466797 C-1003.65813824 207.48640503 -1001.27948293 208.65211613 -998.8984375 209.81640625 C-971.04111101 223.48026601 -971.04111101 223.48026601 -958.79980469 231.80957031 C-954.92892541 234.54581819 -954.92892541 234.54581819 -950.39453125 235.34765625 C-947.33526863 234.02513652 -944.54645058 232.46671415 -941.6875 230.75 C-928.84416891 223.2169573 -915.38612957 217.03230123 -901.83886719 210.87597656 C-895.95974157 208.19238436 -890.159168 205.39861251 -884.3984375 202.47265625 C-876.10663424 198.27943457 -867.6446881 194.52054698 -859.11914062 190.83032227 C-856.63149724 189.75281424 -854.1476292 188.66694448 -851.6640625 187.58007812 C-842.20975485 183.46025291 -832.69038423 179.58126497 -823.06323242 175.88476562 C-817.66126552 173.8065613 -812.32722526 171.57449655 -807 169.3125 C-788.59832843 161.51282874 -770.09911466 154.27729481 -751.27624512 147.56239319 C-746.45364943 145.84026286 -741.64374609 144.08605595 -736.83984375 142.3125 C-711.95456143 133.13745553 -686.88635596 124.45158819 -661.46337891 116.87573242 C-655.26392247 115.02382516 -649.11204846 113.0530551 -642.96582031 111.03173828 C-608.99402211 99.8848815 -574.6047886 89.97768877 -539.97073364 81.10971069 C-534.34365308 79.66686378 -528.72885319 78.18127439 -523.1171875 76.6796875 C-455.08895551 58.50927493 -386.12027899 44.16042338 -316.72607422 32.296875 C-312.49602034 31.57297445 -308.2702356 30.8288582 -304.04689026 30.06689453 C-275.80933404 24.97867047 -247.31153292 21.50912742 -218.86149597 17.84767151 C-211.37884528 16.8841751 -203.89988043 15.89910756 -196.42578125 14.87109375 C-144.55859162 7.81841069 -92.03101236 3.80669386 -39.75714111 1.43869019 C-36.90930266 1.30834892 -34.06183265 1.17144246 -31.21435547 1.03344727 C-20.81019229 0.53462394 -10.41704488 0.08959614 0 0 Z M-33.578125 25.79296875 C-34.6321048 25.84579514 -35.68608459 25.89862152 -36.77200317 25.95304871 C-69.92399972 27.64367265 -102.95315231 30.19779558 -136 33.3125 C-137.6126474 33.46332031 -137.6126474 33.46332031 -139.25787354 33.6171875 C-232.95060773 42.39067881 -326.07227558 57.22076063 -418 77.3125 C-419.04077698 77.53981812 -420.08155396 77.76713623 -421.15386963 78.00134277 C-467.73718665 88.19737656 -514.06879233 99.48504631 -560 112.3125 C-560.89642212 112.56217529 -561.79284424 112.81185059 -562.71643066 113.0690918 C-615.81623974 127.8652689 -668.43026729 144.25390882 -720.28369141 162.97119141 C-722.73560133 163.85614694 -725.18838458 164.73868699 -727.64208984 165.61865234 C-782.38449865 185.2692054 -836.40199959 207.49133368 -889 232.3125 C-889.98919434 232.77817383 -890.97838867 233.24384766 -891.99755859 233.72363281 C-901.50453111 238.20342612 -911.01529837 242.68687095 -920.36450195 247.48999023 C-923.55600852 249.12686159 -926.74420028 250.64736994 -930.0625 252.01171875 C-931.04005249 252.43578003 -931.04005249 252.43578003 -932.03735352 252.8684082 C-933.8143559 253.63441655 -935.60791485 254.36169224 -937.40234375 255.0859375 C-940.14355515 256.98496704 -940.14355515 256.98496704 -940.4583168 259.37438107 C-940.51737072 260.18862325 -940.57642464 261.00286543 -940.63726807 261.84178162 C-940.70534416 262.74001081 -940.77342026 263.63824001 -940.84355927 264.56368828 C-941.08080923 268.73239457 -941.2737785 272.89699128 -941.40136719 277.07055664 C-941.43260933 278.00303097 -941.46385147 278.93550529 -941.49604034 279.89623642 C-941.5994377 283.00494893 -941.69812032 286.11379306 -941.796875 289.22265625 C-941.8710018 291.4764661 -941.9454537 293.73026527 -942.02020264 295.98405457 C-942.18154533 300.86557354 -942.34091056 305.74715163 -942.4987793 310.62878418 C-942.75389875 318.51208772 -943.01405147 326.39522086 -943.27539062 334.27832031 C-943.32064883 335.64399781 -943.36590639 337.00967532 -943.41116333 338.37535286 C-943.48005978 340.45422984 -943.54896428 342.53310656 -943.61789322 344.61198246 C-943.75945785 348.88216134 -943.90068695 353.15235116 -944.04165268 357.42254984 C-945.14022439 390.70022311 -946.27431889 423.97666398 -947.42044973 457.25273037 C-947.50009217 459.56517629 -947.5796932 461.87762363 -947.65929031 464.19007111 C-949.11182072 506.37885935 -950.6062016 548.56580932 -952.1875 590.75 C-952.24712418 592.34238243 -952.24712418 592.34238243 -952.30795288 593.9669342 C-953.13098953 615.93664093 -953.97959181 637.90516795 -954.86573029 659.87242126 C-955.95296307 686.82936594 -956.96034287 713.78885778 -957.9375 740.75 C-958.02490985 743.15715545 -958.11232241 745.5643108 -958.19973755 747.97146606 C-959.32772231 779.06272749 -960.42177756 810.15486345 -961.4375 841.25 C-961.46550816 842.10732475 -961.49351631 842.96464951 -961.5223732 843.8479538 C-961.79425272 852.17573247 -962.06488881 860.50355143 -962.33491516 868.83139038 C-963.25340435 897.15622735 -964.18047408 925.48078271 -965.11309719 953.80515766 C-965.4242554 963.25716736 -965.7340432 972.70921993 -966.04197723 982.16133523 C-966.25496343 988.69588483 -966.46945753 995.23038389 -966.68506497 1001.76484752 C-966.81094274 1005.58133891 -966.93616072 1009.39784893 -967.05959129 1013.21442032 C-967.92881734 1040.06792836 -967.92881734 1040.06792836 -968.64133072 1051.87003803 C-969.17351564 1060.85948287 -969.42719804 1069.85993761 -969.7224617 1078.85965729 C-970.56897024 1104.50066763 -971.57221071 1130.13477631 -972.610322 1155.7686367 C-972.76562408 1159.60573097 -972.92040316 1163.44284627 -973.07519603 1167.27996111 C-973.75281572 1184.07481201 -974.43294988 1200.8695595 -975.11914062 1217.6640625 C-975.4819424 1226.54426622 -975.84167548 1235.42458898 -976.19810998 1244.30505061 C-976.38468344 1248.95010042 -976.57275553 1253.59507753 -976.76475906 1258.23990631 C-977.89775355 1285.26604441 -977.89775355 1285.26604441 -978 1312.3125 C-974.88554259 1309.23716015 -972.0857438 1306.26549467 -969.5625 1302.6875 C-968.87671875 1301.7284375 -968.1909375 1300.769375 -967.484375 1299.78125 C-966.90333008 1298.96720703 -966.90333008 1298.96720703 -966.31054688 1298.13671875 C-963.67338318 1294.46591265 -960.99182117 1290.82758786 -958.3125 1287.1875 C-957.40975342 1285.96051392 -957.40975342 1285.96051392 -956.48876953 1284.70874023 C-952.01035047 1278.63988235 -947.44116905 1272.64634227 -942.83642578 1266.6730957 C-938.84987658 1261.47940337 -934.99976812 1256.19760197 -931.1875 1250.875 C-927.32917557 1245.48826813 -923.39619436 1240.2272931 -919.19921875 1235.09765625 C-916.1557498 1231.24331635 -913.27308831 1227.27676937 -910.375 1223.3125 C-905.66585557 1216.87300113 -900.86730025 1210.52209987 -895.9375 1204.25 C-890.65383556 1197.52177964 -885.58770661 1190.66602834 -880.61083984 1183.70849609 C-876.73329346 1178.29650693 -872.72555265 1173.0155097 -868.640625 1167.7578125 C-865.46223329 1163.63957378 -862.39044656 1159.44352675 -859.3125 1155.25 C-852.51964465 1145.99706966 -845.64350223 1136.80881881 -838.74462891 1127.63476562 C-837.14338519 1125.50335922 -835.54537361 1123.36959369 -833.94921875 1121.234375 C-828.2580326 1113.62382342 -822.5185999 1106.05208027 -816.75 1098.5 C-812.08412354 1092.3898333 -807.45777884 1086.26476268 -802.96875 1080.0234375 C-798.90493683 1074.42763127 -794.72183573 1068.91950034 -790.56445312 1063.39306641 C-788.0396673 1060.03535343 -785.51996669 1056.67383037 -783 1053.3125 C-780.02607953 1049.34566293 -777.05121533 1045.37956272 -774.0703125 1041.41796875 C-768.69289191 1034.26684867 -763.35710578 1027.08768743 -758.0625 1019.875 C-752.45016298 1012.23342649 -746.72884217 1004.68259037 -740.953125 997.1640625 C-736.92189532 991.91522641 -732.96118109 986.6142849 -729 981.3125 C-727.06350584 978.72841201 -725.12544679 976.14549869 -723.1875 973.5625 C-722.16013011 972.19272794 -721.13278655 970.82293613 -720.10546875 969.453125 C-702 945.3125 -702 945.3125 -700.50048828 943.31323242 C-699.49875654 941.97753577 -698.49712922 940.64176081 -697.49560547 939.3059082 C-695.02294379 936.00808904 -692.54858626 932.71157306 -690.0703125 929.41796875 C-684.75546814 922.35007442 -679.48145859 915.2548651 -674.25 908.125 C-668.57948511 900.40071569 -662.79386081 892.77026181 -656.97070312 885.16064453 C-651.91320958 878.54012599 -646.94700112 871.85749765 -642.01879883 865.14038086 C-636.84260371 858.08611695 -631.59999981 851.0833309 -626.33886719 844.09228516 C-623.59628252 840.44650795 -620.86152381 836.79485855 -618.125 833.14453125 C-616.73083911 831.28650433 -615.33505947 829.4296907 -613.9375 827.57421875 C-609.31559705 821.43150582 -604.74229625 815.25507288 -600.1875 809.0625 C-592.59090062 798.73985306 -584.94413414 788.45765491 -577.15234375 778.28125 C-570.28619665 769.31210769 -563.50230064 760.30746679 -556.93164062 751.11938477 C-552.09342257 744.38075622 -547.06590467 737.79443591 -542.02050781 731.21020508 C-537.53609158 725.35040265 -533.11576786 719.44868494 -528.75 713.5 C-519.87233297 701.40537324 -510.8557118 689.42384675 -501.75 677.5 C-497.08135075 671.3860342 -492.45170071 665.25760557 -487.9609375 659.01171875 C-485.47013639 655.58314591 -482.92348464 652.19830871 -480.375 648.8125 C-475.88029535 642.83889714 -471.42764139 636.83596758 -467 630.8125 C-460.24081471 621.62041518 -453.40218221 612.49009819 -446.54101562 603.37402344 C-445.06826114 601.41657739 -443.5963198 599.45852465 -442.125 597.5 C-441.63644531 596.84966797 -441.14789062 596.19933594 -440.64453125 595.52929688 C-436.68800804 590.25221981 -432.77896959 584.94102126 -428.875 579.625 C-424.15965367 573.20696079 -419.37673762 566.85503953 -414.5 560.55859375 C-408.20307472 552.41067713 -402.03724645 544.15442144 -396 535.8125 C-389.5149525 526.85569259 -382.85140604 518.02959469 -376.12890625 509.25 C-369.13089074 500.109424 -362.21856498 490.9295572 -355.51855469 481.56787109 C-352.36252377 477.16738896 -349.13987287 472.83474716 -345.8125 468.5625 C-342.43214493 464.21554905 -339.17694513 459.80813047 -336 455.3125 C-331.94396953 449.57504901 -327.72325006 443.98940017 -323.41796875 438.4375 C-318.47895309 432.05428105 -313.66112575 425.58109881 -308.88671875 419.07421875 C-302.64702007 410.57192055 -296.3525999 402.12103569 -289.9375 393.75 C-284.41122933 386.53672766 -279.0199302 379.2453361 -273.73339844 371.85498047 C-269.4464384 365.88071351 -265.00557751 360.03585933 -260.52050781 354.20947266 C-257.00408438 349.6381222 -253.56576627 345.02135972 -250.19140625 340.34375 C-242.27283905 329.39043779 -234.2124295 318.54709886 -226 307.8125 C-216.20581787 295.00599156 -206.6615585 282.02720256 -197.25 268.9375 C-192.71585867 262.63211413 -188.07401273 256.43190102 -183.3125 250.296875 C-173.12789633 237.15323107 -163.37966663 223.66438084 -153.55883789 210.24829102 C-149.24711887 204.3583462 -144.89891605 198.4991654 -140.5078125 192.66796875 C-137.32711383 188.42747495 -134.19991419 184.1475443 -131.0625 179.875 C-127.09598539 174.47679108 -123.10427255 169.10680874 -119 163.8125 C-114.95988862 158.600094 -111.02910804 153.31495151 -107.125 148 C-98.11900362 135.74109872 -88.98197755 123.58959566 -79.75 111.5 C-75.13830001 105.45878001 -70.55161171 99.40864311 -66.11328125 93.23828125 C-60.80262588 85.88582123 -55.39303917 78.60463486 -50 71.3125 C-49.5757373 70.73854492 -49.15147461 70.16458984 -48.71435547 69.57324219 C-44.52158878 63.91127762 -40.23771209 58.32683204 -35.89501953 52.77954102 C-30.87284804 46.36098371 -25.88977815 39.92545039 -21.125 33.3125 C-20.70226807 32.73129395 -20.27953613 32.15008789 -19.84399414 31.55126953 C-17.65843023 28.71311827 -17.65843023 28.71311827 -17 25.3125 C-22.53921672 25.24138062 -28.04801838 25.51460011 -33.578125 25.79296875 Z M-1893 60.3125 C-1891.09914093 64.25052834 -1888.73263362 67.78525193 -1886.25 71.375 C-1885.76974365 72.07181885 -1885.2894873 72.7686377 -1884.79467773 73.48657227 C-1880.4085893 79.80619993 -1875.8504458 85.99281186 -1871.2668457 92.16992188 C-1866.91571103 98.04184725 -1862.67058355 103.97931913 -1858.47338867 109.96191406 C-1854.27290892 115.94405601 -1850.00135222 121.87269131 -1845.71459961 127.79321289 C-1842.05736769 132.84513796 -1838.42245668 137.91216183 -1834.80371094 142.99169922 C-1831.43255647 147.71861469 -1828.02975013 152.42224835 -1824.625 157.125 C-1818.84636849 165.1124357 -1813.14586013 173.15254289 -1807.47509766 181.21679688 C-1806.01065484 183.29736243 -1804.54305809 185.37566142 -1803.07421875 187.453125 C-1798.30946291 194.19277799 -1793.55802166 200.94107559 -1788.83520508 207.71020508 C-1781.12506151 218.75670329 -1773.26853737 229.69025184 -1765.34716797 240.5859375 C-1759.17717323 249.0757923 -1753.07782728 257.59779489 -1747.16577148 266.26953125 C-1742.08907701 273.69122318 -1736.79282695 280.95240373 -1731.51074219 288.22851562 C-1725.31340246 296.77739926 -1719.23042922 305.40396225 -1713.1875 314.0625 C-1708.10992344 321.33693934 -1702.9632186 328.55607617 -1697.75244141 335.7355957 C-1694.14527875 340.71036922 -1690.59105108 345.71924083 -1687.0625 350.75 C-1682.74798564 356.89474053 -1678.34008696 362.96385277 -1673.875 369 C-1665.1640609 380.77644479 -1656.70325429 392.71217735 -1648.3125 404.71850586 C-1644.07183723 410.78634814 -1639.81128833 416.83968103 -1635.53515625 422.88256836 C-1632.88696605 426.62820281 -1630.25167891 430.38222974 -1627.6328125 434.1484375 C-1621.25058351 443.3212152 -1614.77038353 452.40163857 -1608.11206055 461.3762207 C-1603.81145735 467.18212549 -1599.61738393 473.05467361 -1595.46826172 478.96948242 C-1591.85534461 484.11564247 -1588.19026136 489.2215595 -1584.5 494.3125 C-1579.72280823 500.90587898 -1574.99982006 507.53476187 -1570.31298828 514.19262695 C-1565.9763921 520.35254838 -1561.60291636 526.48542062 -1557.21777344 532.61083984 C-1554.72419865 536.09524568 -1552.23511336 539.5828607 -1549.74511719 543.06982422 C-1547.6882597 545.94990565 -1545.63045856 548.82930103 -1543.5703125 551.70703125 C-1536.00358782 562.28073289 -1528.50679456 572.9034858 -1521.02734375 583.5390625 C-1515.36050985 591.59089919 -1509.6389364 599.59955842 -1503.86230469 607.57299805 C-1499.63321028 613.41742429 -1495.46073118 619.29994817 -1491.30859375 625.19921875 C-1488.22293794 629.58280914 -1485.12104747 633.95404385 -1482 638.3125 C-1478.35610603 643.40341711 -1474.73404984 648.50932153 -1471.125 653.625 C-1470.62154053 654.33857666 -1470.11808105 655.05215332 -1469.59936523 655.78735352 C-1467.07294696 659.36956436 -1464.54892352 662.95344428 -1462.02734375 666.5390625 C-1454.7663565 676.85648841 -1447.40350725 687.09697813 -1440 697.3125 C-1428.66297446 712.95557679 -1417.45972177 728.671287 -1406.58081055 744.63720703 C-1403.11679482 749.71050638 -1399.58240688 754.71955245 -1395.94140625 759.66796875 C-1386.62039958 772.36479272 -1377.59449322 785.29027201 -1368.58203125 798.20703125 C-1362.37621147 807.10054019 -1356.12315268 815.9528489 -1349.75634766 824.73193359 C-1344.60187907 831.84462952 -1339.53664881 839.0184623 -1334.48388672 846.20361328 C-1331.99351214 849.74291167 -1329.49640208 853.27745184 -1327 856.8125 C-1325.99996805 858.22914412 -1324.99996804 859.64581078 -1324 861.0625 C-1323.505 861.76375 -1323.01 862.465 -1322.5 863.1875 C-1306 886.5625 -1306 886.5625 -1304.50048828 888.68701172 C-1303.49911619 890.1054864 -1302.49748802 891.52378034 -1301.49560547 892.94189453 C-1299.01448059 896.45447113 -1296.53769684 899.96994278 -1294.0703125 903.4921875 C-1288.78587537 911.02494755 -1283.41970295 918.48468047 -1277.9375 925.875 C-1272.7510081 932.87232334 -1267.73842462 939.96193983 -1262.8359375 947.16015625 C-1254.66769271 959.15164975 -1246.27416165 970.98646302 -1237.7565918 982.73168945 C-1232.59881027 989.84865873 -1227.53084455 997.02714165 -1222.47509766 1004.21679688 C-1221.01065484 1006.29736243 -1219.54305809 1008.37566142 -1218.07421875 1010.453125 C-1212.65327862 1018.12071866 -1207.25421057 1025.80306584 -1201.875 1033.5 C-1197.94403084 1039.12410514 -1194.0000653 1044.73730525 -1190 1050.3125 C-1185.38658963 1056.74256034 -1180.85026888 1063.22550307 -1176.31689453 1069.7121582 C-1172.51553241 1075.15040396 -1168.70329712 1080.58068128 -1164.875 1086 C-1164.38499512 1086.69375732 -1163.89499023 1087.38751465 -1163.39013672 1088.10229492 C-1160.97807962 1091.51611771 -1158.5639622 1094.92847388 -1156.1484375 1098.33984375 C-1151.1062007 1105.46613674 -1146.09305838 1112.61104888 -1141.11865234 1119.78491211 C-1133.99854678 1130.05250675 -1126.77530552 1140.23374556 -1119.43017578 1150.34130859 C-1110.16861631 1163.10638732 -1101.16089521 1176.05130103 -1092.13574219 1188.98388672 C-1083.19061033 1201.81211492 -1083.19061033 1201.81211492 -1074.04296875 1214.49609375 C-1071.38642067 1218.15837131 -1068.78867614 1221.86077892 -1066.1875 1225.5625 C-1062.37576177 1230.98641407 -1058.51035828 1236.3619624 -1054.5625 1241.6875 C-1049.86902501 1248.02941499 -1045.41161919 1254.51635296 -1040.98339844 1261.04541016 C-1037.18847029 1266.6233486 -1033.28696739 1272.11131594 -1029.3125 1277.5625 C-1022.80966619 1286.49189462 -1016.66672505 1295.63115957 -1010.67578125 1304.91015625 C-1009.95777344 1306.01230469 -1009.23976563 1307.11445312 -1008.5 1308.25 C-1007.8709375 1309.22839844 -1007.241875 1310.20679688 -1006.59375 1311.21484375 C-1006.0678125 1311.90707031 -1005.541875 1312.59929687 -1005 1313.3125 C-1004.34 1313.3125 -1003.68 1313.3125 -1003 1313.3125 C-1001.12976919 1268.69009218 -999.43419447 1224.06088051 -997.74097776 1179.43147469 C-997.62436866 1176.35836175 -997.50767232 1173.28525213 -997.39096451 1170.21214294 C-995.02764529 1107.96425226 -992.79311721 1045.71478305 -990.82421875 983.453125 C-990.79041359 982.38626402 -990.75660843 981.31940304 -990.72177887 980.22021294 C-990.61955258 976.99381832 -990.51748954 973.7674186 -990.41552734 970.54101562 C-990.38171715 969.47125772 -990.34790695 968.40149981 -990.3130722 967.29932499 C-990.13328867 961.59473566 -989.95608349 955.89007776 -989.7822876 950.18530273 C-988.89513192 921.09137627 -987.85370367 892.01334362 -986.5078125 862.9375 C-985.52116315 841.6075668 -984.62940425 820.27927704 -983.9296875 798.9375 C-983.88775772 797.65901499 -983.84582794 796.38052998 -983.80262756 795.06330299 C-983.58291428 788.33440062 -983.36611168 781.60540837 -983.1505127 774.87637329 C-982.64868435 759.22309447 -982.12730754 743.57046042 -981.6015625 727.91796875 C-981.57266623 727.05685478 -981.54376995 726.19574081 -981.51399803 725.30853248 C-980.32150998 689.80321031 -979.02542875 654.30176088 -977.7109375 618.80078125 C-977.68578896 618.12149635 -977.66064042 617.44221146 -977.6347298 616.74234217 C-976.56582736 587.87291286 -975.48899985 559.00377941 -974.40920117 530.1347558 C-974.04187206 520.31388862 -973.67516107 510.4929984 -973.30862272 500.67210168 C-973.03618076 493.375338 -972.76253432 486.07862081 -972.48793495 478.78193802 C-972.27782086 473.19360818 -972.06879609 467.60523805 -971.86035156 462.0168457 C-971.82099747 460.96292432 -971.78164338 459.90900295 -971.74109674 458.82314456 C-971.23096976 445.11782259 -970.77575215 431.41220655 -970.38652945 417.70294452 C-970.15694853 409.66157861 -969.84920341 401.6366229 -969.35548782 393.60729408 C-968.83327889 384.96415864 -968.61562715 376.31030557 -968.36924744 367.65570259 C-968.27871773 364.47750668 -968.18516967 361.29941095 -968.09094238 358.12132263 C-967.89136926 351.37262304 -967.69544499 344.62382023 -967.5 337.875 C-967.27306706 330.04336366 -967.04454575 322.21177908 -966.81248474 314.38029289 C-966.72153328 311.28609426 -966.63320969 308.19182849 -966.54504395 305.09754944 C-966.11057444 290.19505159 -965.38423996 275.32253937 -964.4765625 260.44140625 C-965.42340353 256.59044833 -969.20573879 254.80753903 -972.43408203 252.79541016 C-973.28341309 252.31894043 -974.13274414 251.8424707 -975.0078125 251.3515625 C-975.98041016 250.80483887 -976.95300781 250.25811523 -977.95507812 249.69482422 C-979.00115234 249.11490723 -980.04722656 248.53499023 -981.125 247.9375 C-982.22521484 247.32535645 -983.32542969 246.71321289 -984.45898438 246.08251953 C-1010.6841861 231.58008675 -1037.4576875 218.02621748 -1065.13525391 206.50927734 C-1068.23551778 205.21411001 -1071.32659852 203.89827694 -1074.41796875 202.58203125 C-1092.92978563 194.75348788 -1111.70167454 187.73737794 -1130.60058594 180.90527344 C-1134.44908955 179.51391532 -1138.29151868 178.10646747 -1142.1328125 176.6953125 C-1218.16520808 148.92906226 -1296.89217118 128.5937901 -1376.27593994 113.04562378 C-1379.75509898 112.36071156 -1383.23244562 111.66733373 -1386.70949364 110.97181702 C-1412.60595772 105.79780472 -1438.56716673 101.15879193 -1464.625 96.875 C-1466.08175896 96.63466978 -1466.08175896 96.63466978 -1467.56794739 96.38948441 C-1504.63860805 90.27521449 -1541.75777019 85.04798228 -1579.0824585 80.76245117 C-1582.92855451 80.32070591 -1586.77411275 79.8744957 -1590.61962891 79.42773438 C-1620.71648226 75.94711225 -1650.84592745 72.95427735 -1681.04760742 70.54821777 C-1684.05212125 70.30833866 -1687.05633954 70.06497407 -1690.06054688 69.82128906 C-1757.32316466 64.39550465 -1825.49323538 59.26036244 -1893 60.3125 Z M-19 70.3125 C-19.3403125 70.77809326 -19.680625 71.24368652 -20.03125 71.72338867 C-27.01190572 81.26261252 -34.06051179 90.74193446 -41.25 100.125 C-46.06311052 106.40879903 -50.78750688 112.73093083 -55.3425293 119.20385742 C-60.20464124 126.07886129 -65.38652042 132.71214249 -70.52050781 139.38476562 C-76.94323966 147.75339445 -83.17665557 156.26275157 -89.42553711 164.76123047 C-93.75099987 170.63648262 -98.11536684 176.48130779 -102.5 182.3125 C-109.73124249 191.9320599 -116.87495896 201.61413929 -124 211.3125 C-133.34731006 224.03059229 -142.75744829 236.69760466 -152.25390625 249.3046875 C-160.92209441 260.83034468 -169.50764982 272.4197187 -177.90307617 284.14575195 C-183.33761198 291.73216786 -188.93767207 299.1537669 -194.69921875 306.49462891 C-200.70920265 314.17165204 -206.47481034 322.02033988 -212.22802734 329.890625 C-215.24715081 334.01706545 -218.279736 338.13357963 -221.3125 342.25 C-221.90289063 343.05171631 -222.49328125 343.85343262 -223.1015625 344.67944336 C-226.905329 349.84039461 -230.74056092 354.9764105 -234.59765625 360.09765625 C-237.74319018 364.29124661 -240.83463205 368.5248181 -243.9375 372.75 C-247.90403554 378.1481938 -251.89572705 383.51819075 -256 388.8125 C-263.09202152 397.96723366 -269.89273674 407.33995038 -276.73535156 416.68164062 C-284.77111677 427.64993237 -292.93161232 438.51285017 -301.1875 449.31640625 C-313.61957758 465.59016916 -325.79914078 482.05744967 -337.75 498.6875 C-342.21511457 504.89623714 -346.78408403 511.00177764 -351.47265625 517.04296875 C-358.14174014 525.64320347 -364.65634768 534.36256571 -370.9375 543.25 C-375.68771331 549.96618311 -380.68005271 556.48443703 -385.6953125 563.00390625 C-390.41009846 569.13645413 -395.03596308 575.33538378 -399.66699219 581.53125 C-401.56429121 584.06654188 -403.47053748 586.59508669 -405.375 589.125 C-412.84233557 599.08144742 -420.19622641 609.1231177 -427.5546875 619.16015625 C-433.7027195 627.53801344 -439.91156421 635.86056103 -446.23974609 644.10327148 C-453.59989723 653.69033439 -460.91052618 663.30799606 -467.875 673.1875 C-472.29112628 679.4430053 -476.96842119 685.47634137 -481.68920898 691.50390625 C-487.02423246 698.32027998 -492.22659631 705.22826423 -497.39892578 712.16845703 C-499.12447472 714.47918755 -500.85647007 716.78497755 -502.58984375 719.08984375 C-511.74251988 731.26206985 -520.80167034 743.50047955 -529.81005859 755.77978516 C-536.25207563 764.56028365 -542.72589045 773.29931634 -549.3984375 781.90625 C-552.54115495 785.99202764 -555.57809674 790.15509072 -558.625 794.3125 C-564.4755163 802.29414886 -570.44639743 810.17743269 -576.45947266 818.03710938 C-580.29937242 823.06204773 -584.07023848 828.12369894 -587.7578125 833.26171875 C-591.06705623 837.7643657 -594.47774229 842.18856738 -597.875 846.625 C-602.83344492 853.10470854 -607.7159138 859.61696464 -612.42016602 866.28320312 C-619.47314645 876.25836393 -626.93632004 885.9362656 -634.375 895.625 C-639.61473293 902.45081424 -644.74300762 909.35299178 -649.83496094 916.28955078 C-655.02450605 923.3576708 -660.27740085 930.37638925 -665.54980469 937.3828125 C-666.98663408 939.29471478 -668.41973283 941.20935126 -669.8515625 943.125 C-675.60894298 950.82425347 -681.41413131 958.48503574 -687.25 966.125 C-691.86575989 972.17133481 -696.45550989 978.22726154 -700.8984375 984.40234375 C-711.70554824 999.36758074 -722.71902798 1014.20071888 -734 1028.8125 C-742.09852828 1039.30602482 -750.02284764 1049.91740356 -757.75 1060.6875 C-761.62773947 1066.09037077 -765.58259391 1071.36957802 -769.79296875 1076.51953125 C-773.51697007 1081.23220549 -777.03446613 1086.09772079 -780.58569336 1090.94116211 C-784.35996836 1096.0884482 -788.16013774 1101.21397321 -792 1106.3125 C-796.29094949 1112.01213055 -800.53024009 1117.74750218 -804.75 1123.5 C-810.41824157 1131.22140462 -816.20153192 1138.84904611 -822.02270508 1146.45556641 C-828.28878862 1154.65780363 -834.40451035 1162.96626561 -840.51025391 1171.28808594 C-843.22482573 1174.97691411 -845.97593872 1178.63779615 -848.73046875 1182.296875 C-850.44522681 1184.5753487 -852.15590882 1186.85662761 -853.86328125 1189.140625 C-858.4947362 1195.33322786 -863.13867406 1201.51210643 -867.875 1207.625 C-871.87673871 1212.7927333 -875.76079917 1218.04132546 -879.625 1223.3125 C-885.3334522 1231.09881628 -891.15589778 1238.79087491 -897.02441406 1246.45703125 C-902.13954374 1253.15157809 -907.15258167 1259.91568922 -912.1328125 1266.7109375 C-916.1361566 1272.16503474 -920.23173536 1277.53320979 -924.37890625 1282.87890625 C-928.25383806 1287.91586368 -931.97589726 1293.06771565 -935.72705078 1298.19702148 C-939.95073134 1303.94988564 -944.29257341 1309.591518 -948.80053711 1315.12475586 C-951.24914942 1317.8712669 -951.24914942 1317.8712669 -952 1321.3125 C-945.05582376 1319.3397438 -938.35203302 1316.98470088 -931.625 1314.375 C-915.26867878 1308.14600788 -898.64392035 1302.71467477 -882 1297.3125 C-881.34926514 1297.10089233 -880.69853027 1296.88928467 -880.02807617 1296.67126465 C-808.16898857 1273.33644846 -733.65365258 1259.18766006 -659 1248.3125 C-657.59663391 1248.10654205 -657.59663391 1248.10654205 -656.16491699 1247.89642334 C-609.04545413 1240.99171736 -561.57266471 1236.33195305 -514.0378418 1233.49676514 C-510.49286704 1233.28173904 -506.94864229 1233.05572441 -503.40429688 1232.83056641 C-483.92623203 1231.60830013 -464.45808605 1230.77724701 -444.94938278 1230.24744034 C-442.70158294 1230.18618048 -440.45383252 1230.12330591 -438.20608521 1230.06015015 C-407.64532909 1229.20649944 -377.18543502 1228.98492206 -346.62573242 1229.95410156 C-334.41462563 1230.33781927 -322.21714035 1230.4202983 -310 1230.3125 C-306.31889884 1216.90902977 -303.01340049 1203.41080375 -299.66210938 1189.92211914 C-294.21979788 1168.02260335 -288.70189078 1146.14614154 -283 1124.3125 C-274.75175352 1092.71634653 -266.88852671 1061.02563921 -259.01135254 1029.33532715 C-254.59002584 1011.55203992 -250.0812575 993.79389363 -245.47268677 976.05801392 C-239.38331483 952.60973839 -233.41788001 929.13276901 -227.5625 905.625 C-227.21850882 904.24415006 -226.87451468 902.86330086 -226.53051758 901.48245239 C-226.27685897 900.46420993 -226.27685897 900.46420993 -226.01807594 899.42539692 C-222.55453825 885.52255535 -219.09050728 871.62070348 -215.5 857.75 C-211.28665952 841.47019267 -207.1390926 825.17381339 -203 808.875 C-202.82272118 808.1769865 -202.64544235 807.47897301 -202.46279144 806.75980759 C-198.32536746 790.46816016 -194.19711221 774.17445003 -190.14001465 757.86257935 C-187.42790692 746.96330058 -184.67650845 736.07411064 -181.9140625 725.1875 C-181.72796228 724.45408638 -181.54186207 723.72067276 -181.35012245 722.96503448 C-179.78633693 716.80274007 -178.22196454 710.64059464 -176.65739059 704.47850037 C-170.76909127 681.28682102 -164.91702067 658.08680484 -159.14746094 634.86523438 C-156.78160297 625.35420705 -154.37036629 615.85908892 -151.85778809 606.38574219 C-149.62341353 597.93741349 -147.51760833 589.45783711 -145.41156006 580.97677612 C-140.62427701 561.70839566 -135.76748074 542.45793509 -130.87487411 523.21605682 C-130.37256997 521.24044245 -129.87041857 519.26478931 -129.36831665 517.28912354 C-126.16597323 504.68870501 -122.96156649 492.0888122 -119.75390625 479.48974609 C-117.4584231 470.47296932 -115.16550669 461.45554221 -112.875 452.4375 C-112.5925518 451.32564394 -112.5925518 451.32564394 -112.30439758 450.19132614 C-106.2237927 426.25105432 -100.25600501 402.28520508 -94.41357422 378.28564453 C-94.14357605 377.17843048 -93.87357788 376.07121643 -93.59539795 374.93045044 C-93.10480571 372.91737652 -92.61557797 370.90396916 -92.12823486 368.8901062 C-90.51557192 362.27086383 -88.77324027 355.69107945 -87.00830078 349.1109314 C-85.44460627 343.22024241 -83.96817563 337.30866491 -82.49609375 331.39453125 C-82.17637604 330.11424545 -81.85665833 328.83395966 -81.5272522 327.51487732 C-80.67242528 324.09176653 -79.81902116 320.66830258 -78.96590042 317.24476624 C-78.0718341 313.6580704 -77.17636716 310.0717243 -76.28100586 306.48535156 C-74.84918494 300.74965809 -73.41801026 295.01380381 -71.98730469 289.27783203 C-69.57218649 279.59564619 -67.15188071 269.91475957 -64.73065186 260.23410034 C-63.62741396 255.82281163 -62.52466627 251.41140038 -61.421875 247 C-61.00716382 245.34114524 -60.59245034 243.68229106 -60.17773438 242.0234375 C-59.97994385 241.23227539 -59.78215332 240.44111328 -59.57836914 239.62597656 C-55.82210286 224.60091146 -52.06583659 209.57584635 -48.30957031 194.55078125 C-48.00769806 193.34325699 -47.70582581 192.13573273 -47.39480591 190.89161682 C-46.75398323 188.32839819 -46.11310362 185.76519386 -45.47213745 183.20201111 C-43.94924869 177.11175018 -42.42691122 171.02135394 -40.90725517 164.93028545 C-40.04271659 161.46514754 -39.17772256 158.00012344 -38.3125 154.53515625 C-38.1387598 153.83934511 -37.96501961 153.14353397 -37.78601456 152.42663765 C-35.38636206 142.81985747 -32.96693839 133.21824804 -30.53184509 123.62039185 C-29.20789086 118.40189264 -27.88919611 113.18206852 -26.57168674 107.96193886 C-25.49197345 103.68611726 -24.40508519 99.41220141 -23.31302452 95.13951778 C-22.48212107 91.87980558 -21.66183661 88.61743897 -20.83984375 85.35546875 C-20.53550415 84.17423935 -20.23116455 82.99300995 -19.91760254 81.77598572 C-19.64822876 80.69901932 -19.37885498 79.62205292 -19.10131836 78.51245117 C-18.86311874 77.57519699 -18.62491913 76.63794281 -18.37950134 75.67228699 C-17.79034584 73.17004908 -17.79034584 73.17004908 -19 70.3125 Z M-1890 110.3125 C-1882.3443943 140.43486338 -1874.54922608 170.52074479 -1866.74176884 200.60401249 C-1865.59204329 205.03415284 -1864.4424535 209.46432841 -1863.29296875 213.89453125 C-1863.06634741 214.76792837 -1862.83972607 215.64132549 -1862.60623741 216.54118919 C-1859.59883214 228.13302742 -1856.59965914 239.72694541 -1853.61328125 251.32421875 C-1853.44368141 251.98280506 -1853.27408157 252.64139137 -1853.09934235 253.31993484 C-1852.26600813 256.55604543 -1851.43277551 259.79218216 -1850.59954834 263.02832031 C-1840.92192313 300.60662323 -1831.11410493 338.15043215 -1820.98690796 375.61026001 C-1816.1485655 393.53355194 -1811.55212818 411.51902477 -1806.93847275 429.50109482 C-1802.32403195 447.48579364 -1797.67245904 465.45657404 -1792.80966187 483.37609863 C-1789.81560504 494.4189179 -1786.90780862 505.48246511 -1784.0546875 516.5625 C-1783.88064203 517.23823311 -1783.70659657 517.91396622 -1783.52727699 518.61017609 C-1781.95095828 524.73201468 -1780.37657429 530.85434696 -1778.8107605 536.97888184 C-1774.94965188 552.07956102 -1770.98425352 567.14195035 -1766.81199646 582.15986633 C-1764.07797397 592.00113971 -1761.44584053 601.86504005 -1758.875 611.75 C-1758.41518288 613.51094251 -1757.95521609 615.27184594 -1757.49511719 617.03271484 C-1754.88473921 627.03209316 -1752.29439593 637.03660579 -1749.7109375 647.04296875 C-1748.55771202 651.5079212 -1747.40404384 655.972759 -1746.25 660.4375 C-1745.81562119 662.11833679 -1745.81562119 662.11833679 -1745.37246704 663.83312988 C-1740.1106801 684.1775664 -1734.70744737 704.48262853 -1729.23730469 724.77197266 C-1726.06288166 736.55324299 -1722.93668315 748.34503008 -1719.88499451 760.15870667 C-1715.81274946 775.92304351 -1711.6886035 791.67382976 -1707.56689453 807.42529297 C-1706.6082734 811.0891108 -1705.65062606 814.753181 -1704.69384766 818.41748047 C-1699.73867296 837.3936558 -1694.74867562 856.35714615 -1689.55762482 875.27030945 C-1686.75155322 885.49660625 -1684.05324379 895.74348044 -1681.47854614 906.03039551 C-1676.77516314 924.7887531 -1671.72055949 943.44335405 -1666.5925293 962.0894165 C-1662.18660017 978.1240139 -1657.93660891 994.18734449 -1653.875 1010.3125 C-1649.92881529 1025.97527549 -1645.78084391 1041.5676272 -1641.4375 1057.125 C-1637.39851627 1071.59950974 -1633.41848348 1086.08401642 -1629.625 1100.625 C-1629.40636292 1101.46304169 -1629.18772583 1102.30108337 -1628.96246338 1103.16452026 C-1626.1361134 1114.0120984 -1623.34059246 1124.86764283 -1620.54296875 1135.72265625 C-1619.29994324 1140.54439062 -1618.0564368 1145.36600065 -1616.8125 1150.1875 C-1616.50248047 1151.38927887 -1616.19246094 1152.59105774 -1615.87304688 1153.82925415 C-1610.88002699 1173.17122983 -1605.80429809 1192.49018736 -1600.66265488 1211.79312897 C-1600.1264489 1213.80705811 -1599.59104327 1215.82119857 -1599.05581665 1217.83538818 C-1598.06363058 1221.56813996 -1597.06735812 1225.29979309 -1596.0703125 1229.03125 C-1595.7731282 1230.14915924 -1595.47594391 1231.26706848 -1595.16975403 1232.41885376 C-1594.89733383 1233.43498749 -1594.62491364 1234.45112122 -1594.34423828 1235.49804688 C-1593.98907639 1236.82781555 -1593.98907639 1236.82781555 -1593.6267395 1238.18444824 C-1593.06006424 1240.33929292 -1593.06006424 1240.33929292 -1592 1242.3125 C-1591.04803238 1242.29997192 -1590.09606476 1242.28744385 -1589.11524963 1242.27453613 C-1580.07012934 1242.15564684 -1571.02499427 1242.03794234 -1561.97984409 1241.92134857 C-1557.33152564 1241.86139408 -1552.68321303 1241.80104622 -1548.03491211 1241.73974609 C-1543.53505086 1241.6804189 -1539.03517647 1241.62219453 -1534.53529167 1241.56468201 C-1532.83281905 1241.54273922 -1531.1303512 1241.52042286 -1529.42788887 1241.49769592 C-1513.7201387 1241.28845451 -1498.02897423 1241.16861471 -1482.32421875 1241.64453125 C-1481.09138153 1241.68063004 -1479.85854431 1241.71672882 -1478.58834839 1241.75392151 C-1474.62123933 1241.87283308 -1470.65433547 1241.99735962 -1466.6875 1242.125 C-1466.00665722 1242.14677559 -1465.32581444 1242.16855118 -1464.62434006 1242.19098663 C-1384.83556697 1244.75564092 -1305.78650957 1254.25675004 -1227.49700928 1269.81762695 C-1225.11026617 1270.29064675 -1222.72255896 1270.75842468 -1220.33447266 1271.22460938 C-1160.94123768 1282.85997153 -1102.01932056 1299.27033375 -1044.98413086 1319.51782227 C-1043.91277641 1319.89662537 -1043.91277641 1319.89662537 -1042.81977844 1320.28308105 C-1040.95022149 1320.94670108 -1039.08360627 1321.61859324 -1037.21728516 1322.29125977 C-1034.14026207 1323.2679776 -1031.19366372 1323.87144142 -1028 1324.3125 C-1032.55491653 1317.07230632 -1037.22838202 1309.93159693 -1042.0625 1302.875 C-1042.70880371 1301.92979492 -1043.35510742 1300.98458984 -1044.02099609 1300.01074219 C-1053.33068616 1286.42117757 -1062.78194227 1272.93995962 -1072.45751953 1259.60839844 C-1076.26850318 1254.35033887 -1079.97500812 1249.03217966 -1083.65234375 1243.6796875 C-1086.39338746 1239.72053393 -1089.23168758 1235.83269107 -1092.0625 1231.9375 C-1099.19342615 1222.11388719 -1106.1051291 1212.14179334 -1113.02001953 1202.16552734 C-1120.38673999 1191.55054643 -1127.79137567 1180.96201267 -1135.31835938 1170.45996094 C-1141.10644465 1162.38213557 -1146.81626689 1154.24873475 -1152.54101562 1146.12597656 C-1158.07745922 1138.27154292 -1163.62321007 1130.42456563 -1169.21801758 1122.61157227 C-1172.43812992 1118.11056653 -1175.62726587 1113.58823208 -1178.8125 1109.0625 C-1183.01596851 1103.09057757 -1187.27235375 1097.15990831 -1191.5625 1091.25 C-1196.15550576 1084.91876855 -1200.63973977 1078.52422022 -1205.05151367 1072.06567383 C-1210.60503412 1063.9438647 -1216.34915681 1055.9618818 -1222.12890625 1048 C-1227.76786344 1040.22745135 -1233.3461327 1032.42611645 -1238.76318359 1024.49707031 C-1246.77770459 1012.76864398 -1254.94338526 1001.14356244 -1263.24023438 989.61328125 C-1266.7632608 984.69368808 -1270.16181494 979.69213407 -1273.5625 974.6875 C-1277.83890262 968.39991179 -1282.21577811 962.2444174 -1286.82421875 956.1953125 C-1293.37781225 947.51209526 -1299.5473423 938.54350634 -1305.72265625 929.58984375 C-1309.34124137 924.38230873 -1313.03764099 919.23117129 -1316.73388672 914.07861328 C-1318.82661363 911.1594489 -1320.91308135 908.23581811 -1323 905.3125 C-1325.45001744 901.88057451 -1327.90091783 898.44932416 -1330.359375 895.0234375 C-1335.225462 888.23634228 -1340.03363242 881.41131637 -1344.8125 874.5625 C-1351.9497585 864.3407155 -1359.23700048 854.23214996 -1366.57226562 844.15185547 C-1374.57105747 833.15725211 -1382.38902962 822.04791433 -1390.13671875 810.875 C-1397.41012698 800.38951393 -1404.79571128 789.98386795 -1412.22119141 779.60571289 C-1419.92693327 768.82897481 -1427.53506648 757.98347844 -1435.125 747.125 C-1441.91354232 737.41610712 -1448.74851599 727.74437797 -1455.75 718.1875 C-1460.16315062 712.13951828 -1464.43543287 705.99417503 -1468.72119141 699.85571289 C-1472.55300812 694.37034276 -1476.41308492 688.90729045 -1480.31201172 683.46948242 C-1483.56323907 678.9325002 -1486.78472428 674.37501795 -1490 669.8125 C-1494.05165688 664.06397889 -1498.12284816 658.33024322 -1502.2175293 652.61230469 C-1505.43775133 648.11101514 -1508.62695552 643.58837344 -1511.8125 639.0625 C-1516.04389662 633.05446368 -1520.31718288 627.07847162 -1524.625 621.125 C-1525.44750244 619.98828857 -1525.44750244 619.98828857 -1526.28662109 618.82861328 C-1526.82496582 618.08466309 -1527.36331055 617.34071289 -1527.91796875 616.57421875 C-1534.63268674 607.29423477 -1541.25685431 597.9555572 -1547.8125 588.5625 C-1553.96006634 579.75614256 -1560.2242669 571.03955758 -1566.52880859 562.34521484 C-1574.97121672 550.68051354 -1583.24602947 538.89560521 -1591.54101562 527.12597656 C-1602.04410311 512.22547188 -1612.64422975 497.3994055 -1623.32666016 482.62695312 C-1626.59324207 478.10883282 -1629.85723964 473.58884345 -1633.11987305 469.06787109 C-1635.84780697 465.28858446 -1638.57991408 461.51244792 -1641.3203125 457.7421875 C-1646.92979088 450.01592482 -1652.45556032 442.24795243 -1657.83203125 434.35766602 C-1661.88034294 428.43701017 -1666.07853528 422.63044061 -1670.29370117 416.82788086 C-1673.52083276 412.37941152 -1676.70098923 407.90506406 -1679.8125 403.375 C-1683.10735114 398.58248925 -1686.48411009 393.8615862 -1689.91796875 389.16796875 C-1696.03397554 380.77997445 -1702.01807671 372.29635388 -1708 363.8125 C-1714.84998874 354.09830611 -1721.74740589 344.42018875 -1728.71679688 334.79125977 C-1738.59597229 321.14048514 -1748.2759128 307.35436653 -1757.92944336 293.54345703 C-1761.64607625 288.23133885 -1765.39315663 282.9428992 -1769.17456055 277.67675781 C-1772.80718461 272.60743203 -1776.37080089 267.49083271 -1779.9375 262.375 C-1785.37963504 254.57755393 -1790.94182466 246.88212741 -1796.58740234 239.23144531 C-1803.76818637 229.47669895 -1810.81933153 219.64552315 -1817.625 209.625 C-1822.77736457 202.03910569 -1828.11333298 194.61961279 -1833.57128906 187.25195312 C-1836.19790454 183.68636301 -1838.78504362 180.0922591 -1841.375 176.5 C-1841.91970947 175.74509277 -1842.46441895 174.99018555 -1843.02563477 174.21240234 C-1845.76009239 170.42177002 -1848.49190841 166.62924283 -1851.22265625 162.8359375 C-1856.89572237 154.96137017 -1862.60608138 147.11719158 -1868.375 139.3125 C-1872.52445481 133.69849856 -1876.64280021 128.07259614 -1880.60546875 122.32421875 C-1881.99712028 120.31665422 -1883.43227355 118.34604882 -1884.875 116.375 C-1887 113.3125 -1887 113.3125 -1888 110.3125 C-1888.66 110.3125 -1889.32 110.3125 -1890 110.3125 Z " fill="#000000" transform="translate(1979,529.6875)"/>
<path d="M0 0 C2.91457862 1.85001093 5.4307246 3.86144919 7 7 C8.01356706 14.14359074 6.16002321 18.63661109 2.25 24.5 C1.75411377 25.27553223 1.25822754 26.05106445 0.74731445 26.85009766 C-4.064412 34.29608013 -9.18877768 41.52476089 -14.3671875 48.71826172 C-17.38367415 52.93358532 -20.34470668 57.18782614 -23.3125 61.4375 C-24.97865954 63.81991005 -26.64498192 66.20218451 -28.31445312 68.58227539 C-29.50961614 70.29660033 -30.69482929 72.01788143 -31.87304688 73.74389648 C-32.48857422 74.64052002 -33.10410156 75.53714355 -33.73828125 76.4609375 C-34.29427002 77.27739746 -34.85025879 78.09385742 -35.4230957 78.93505859 C-37.66670333 81.87304176 -39.41715046 83.06845912 -43 84 C-47.58486767 84.16287274 -50.97427327 83.61107124 -54.9375 81.25 C-57.67941534 78.25881963 -58.96787236 76.16983093 -59.02905273 72.0378418 C-58.57606928 65.68977225 -56.53011389 61.97194998 -52.6875 57 C-51.58676358 55.51076838 -50.48651678 54.02117476 -49.38671875 52.53125 C-48.82259277 51.77972656 -48.2584668 51.02820312 -47.67724609 50.25390625 C-45.04689059 46.71919853 -42.52719555 43.10878504 -40 39.5 C-39.00709971 38.09203216 -38.01360757 36.68448152 -37.01953125 35.27734375 C-36.52533691 34.57722168 -36.03114258 33.87709961 -35.52197266 33.15576172 C-33.95639467 30.93823627 -32.39035319 28.72103873 -30.82421875 26.50390625 C-30.30287354 25.76551514 -29.78152832 25.02712402 -29.24438477 24.26635742 C-28.21842975 22.81406074 -27.19159512 21.36238498 -26.16381836 19.91137695 C-24.03856969 16.90776283 -21.93092189 13.89802756 -19.8671875 10.8515625 C-14.50824584 2.94074385 -10.24257457 -2.43044142 0 0 Z " fill="#000000" transform="translate(681,1893)"/>
<path d="M0 0 C0.495 0.33 0.99 0.66 1.5 1 C1.5 1.66 1.5 2.32 1.5 3 C2.16 3 2.82 3 3.5 3 C3.9964502 3.92558716 3.9964502 3.92558716 4.50292969 4.86987305 C15.6616279 25.64555669 27.23810696 46.11054889 39.4753418 66.27026367 C41.54563892 69.7651541 41.88768967 71.89048949 41.5 76 C40.01621616 80.00197698 38.2105371 82.48324574 34.75 85 C29.73870482 86.54193698 25.83388385 86.02645935 21.06640625 83.9296875 C17.50680509 81.25321418 15.71619009 78.06546421 13.5 74.25 C13.03215088 73.46431641 12.56430176 72.67863281 12.08227539 71.86914062 C6.59317712 62.58975726 1.3100175 53.1890081 -3.9453125 43.77587891 C-5.42162153 41.13994397 -6.91152358 38.51224267 -8.40625 35.88671875 C-19.5 16.33024994 -19.5 16.33024994 -19.5 9.1875 C-18.16731962 4.93958128 -16.3058476 2.3543857 -12.75 -0.3125 C-8.47341926 -1.61923301 -4.15963265 -1.66385306 0 0 Z " fill="#000000" transform="translate(1291.5,1893)"/>
<path d="M0 0 C7.88741711 6.8206163 8.97527938 18.6246847 10.796875 28.375 C11.0353717 29.62071777 11.27386841 30.86643555 11.51959229 32.14990234 C12.01813847 34.76781311 12.51292452 37.38609741 13.00146484 40.00585938 C13.62254991 43.33310807 14.26099356 46.65674634 14.90458298 49.97970581 C15.52425873 53.19296357 16.12856083 56.40910479 16.734375 59.625 C16.96243835 60.80239746 17.19050171 61.97979492 17.42547607 63.19287109 C20.54223158 80.103836 20.54223158 80.103836 17.8125 87 C14.444295 90.71663999 12.0976673 91.87803697 7.0625 92.4375 C2.75470242 92.24242992 0.23090944 90.93035973 -3 88 C-6.36122746 81.66012381 -7.3794549 74.88040356 -8.6640625 67.875 C-8.90160248 66.61413574 -9.13914246 65.35327148 -9.38388062 64.05419922 C-10.01216049 60.71771763 -10.63046895 57.37946176 -11.24688721 54.04077148 C-11.7498922 51.32592482 -12.26007625 48.61245115 -12.77063942 45.89901733 C-19.50950145 10.07491037 -19.50950145 10.07491037 -16.3125 3.5625 C-11.75671681 -1.48580029 -6.37700828 -1.98497217 0 0 Z " fill="#000000" transform="translate(1231,1902)"/>
<path d="M0 0 C3.90607582 1.66215992 5.39544854 3.14490882 7 7 C8.92335292 16.74622106 4.77510836 26.72719967 1.94580078 35.91210938 C0.58691798 40.34864777 -0.7196375 44.80023373 -2.03027344 49.2512207 C-3.05071003 52.71003736 -4.08139855 56.16567712 -5.11328125 59.62109375 C-6.26824909 63.50074882 -7.39742089 67.38482733 -8.48046875 71.28515625 C-8.69888428 72.06213867 -8.9172998 72.83912109 -9.14233398 73.63964844 C-9.70151942 75.63914639 -10.24972225 77.64170718 -10.796875 79.64453125 C-12.43627847 84.21676364 -14.52213367 87.80173001 -18.3125 90.875 C-21.79352761 92.33217435 -24.25528098 92.40121989 -28 92 C-32.10950341 90.18417291 -34.51859569 87.72210647 -37 84 C-38.10895316 80.19708788 -37.92777071 77.72450537 -36.79077148 73.95727539 C-36.506362 72.99314728 -36.22195251 72.02901917 -35.92892456 71.03567505 C-35.62237946 70.03390228 -35.31583435 69.03212952 -35 68 C-34.41794731 66.01492272 -33.83599917 64.02981479 -33.25415039 62.04467773 C-32.62036966 59.92380246 -31.98480122 57.80346078 -31.34765625 55.68359375 C-31.00625107 54.54648453 -30.66484589 53.40937531 -30.31309509 52.23780823 C-29.5953716 49.85010594 -28.87681854 47.46265287 -28.1574707 45.07543945 C-27.0648909 41.44544355 -25.97869728 37.813574 -24.89257812 34.18164062 C-24.19049808 31.84883974 -23.48803691 29.51615353 -22.78515625 27.18359375 C-22.30527 25.57380898 -22.30527 25.57380898 -21.81568909 23.9315033 C-13.85639311 -2.35200769 -13.85639311 -2.35200769 0 0 Z " fill="#000000" transform="translate(739,1908)"/>
</svg>
