<?xml version="1.0" encoding="UTF-8"?>
<svg version="1.1" xmlns="http://www.w3.org/2000/svg" width="800" height="800">
<path d="M0 0 C1.0209375 -0.00902344 2.041875 -0.01804687 3.09375 -0.02734375 C9.30455273 -0.0031772 14.80174134 0.67709119 20.8125 2.25 C20.8125 2.58 20.8125 2.91 20.8125 3.25 C20.23886719 3.1778125 19.66523437 3.105625 19.07421875 3.03125 C4.70165813 1.46095506 -9.80924884 2.04643936 -24.1875 3.25 C-24.1875 2.92 -24.1875 2.59 -24.1875 2.25 C-16.14688593 0.27511233 -8.24287234 0.03019367 0 0 Z " fill="#000000" transform="translate(571.1875,284.75)"/>
<path d="M0 0 C2.90846414 2.54807853 5.6423636 5.09176536 8.23828125 7.9609375 C8.23828125 8.6209375 8.23828125 9.2809375 8.23828125 9.9609375 C7.65675293 10.26161133 7.07522461 10.56228516 6.47607422 10.87207031 C-15.86616158 22.4388001 -37.92548053 34.46515914 -59.76171875 46.9609375 C-61.29940918 47.83999756 -61.29940918 47.83999756 -62.86816406 48.73681641 C-102.16122649 70.70572848 -102.16122649 70.70572848 -123.76171875 108.9609375 C-126.58126402 120.47331527 -126.06981459 132.31425926 -126.08056641 144.07910156 C-126.08987547 146.41582075 -126.10004558 148.75253664 -126.11100769 151.08924866 C-126.1382114 157.40444537 -126.1534285 163.71961989 -126.16643572 170.03485966 C-126.18051854 175.97462937 -126.20364619 181.91435827 -126.22670607 187.85409889 C-126.27205624 199.61055905 -126.30871942 211.36702935 -126.33984375 223.12353516 C-126.37007773 234.53663915 -126.40445009 245.94971845 -126.44433594 257.36279297 C-126.44679749 258.06755824 -126.44925903 258.77232351 -126.45179518 259.4984453 C-126.46417072 263.03442282 -126.47662707 266.57040004 -126.48912358 270.10637712 C-126.59251485 299.39119482 -126.68162999 328.67604683 -126.76171875 357.9609375 C-131.01820806 357.995918 -135.27465954 358.01669099 -139.53125 358.03515625 C-140.72109497 358.0451062 -141.91093994 358.05505615 -143.13684082 358.06530762 C-159.99046798 358.11994316 -175.95115465 355.82642916 -191.76171875 349.9609375 C-192.79167969 349.58066406 -193.82164062 349.20039062 -194.8828125 348.80859375 C-202.57263728 345.77555529 -209.77830808 341.88954971 -217.01025391 337.91455078 C-218.58782317 337.05561776 -220.17984778 336.22336326 -221.7734375 335.39453125 C-228.57936539 331.83137071 -234.67302383 327.63649692 -240.76171875 322.9609375 C-241.72335937 322.22875 -242.685 321.4965625 -243.67578125 320.7421875 C-248.90524942 316.67646013 -248.90524942 316.67646013 -250.76171875 314.9609375 C-250.76171875 314.3009375 -250.76171875 313.6409375 -250.76171875 312.9609375 C-251.42171875 312.9609375 -252.08171875 312.9609375 -252.76171875 312.9609375 C-254.20703125 311.52734375 -254.20703125 311.52734375 -255.88671875 309.5234375 C-257.78239733 307.2791734 -259.67041258 305.0579967 -261.68359375 302.91796875 C-289.08319402 273.70999486 -295.51085156 234.87899719 -295.03990793 196.31493831 C-295.00505362 192.86972325 -295.00206643 189.4245077 -294.99777222 185.97914124 C-294.97819864 174.32023132 -294.91786931 162.66200008 -294.79980469 151.00366211 C-294.73443566 144.51614828 -294.70491802 138.02946794 -294.71448219 131.54162127 C-294.71783065 128.12750753 -294.70244039 124.71578803 -294.64148331 121.30216789 C-294.58149507 117.5137528 -294.58291644 113.72991503 -294.59814453 109.94116211 C-294.54881523 108.26818054 -294.54881523 108.26818054 -294.49848938 106.56140137 C-294.57141234 101.95313193 -294.61729038 99.11885151 -297.94897079 95.74791145 C-300.48390411 93.95668646 -303.03283019 92.43463562 -305.76171875 90.9609375 C-306.88272481 90.21111388 -307.99422241 89.44660645 -309.08984375 88.66015625 C-310.53617187 87.66435547 -310.53617187 87.66435547 -312.01171875 86.6484375 C-316.6520896 83.44763072 -321.24759489 80.18962043 -325.82421875 76.8984375 C-331.13370681 73.08352632 -336.52459661 69.41624713 -341.98046875 65.8125 C-345.34369596 63.57349761 -348.64740333 61.25789068 -351.94921875 58.9296875 C-355.45280068 56.47718015 -358.98278139 54.06424815 -362.51171875 51.6484375 C-367.47431243 48.24976385 -372.39065886 44.80198576 -377.26171875 41.2734375 C-383.86219399 36.50995244 -390.61892275 31.98235202 -397.38671875 27.4609375 C-398.44310547 26.75364502 -399.49949219 26.04635254 -400.58789062 25.31762695 C-402.08545898 24.32122192 -402.08545898 24.32122192 -403.61328125 23.3046875 C-404.95640381 22.41040039 -404.95640381 22.41040039 -406.32666016 21.49804688 C-410.4878845 18.87131052 -413.14780151 17.71071587 -418.14007568 17.72042847 C-419.23100021 17.71767914 -420.32192474 17.71492981 -421.44590759 17.71209717 C-423.23370384 17.722883 -423.23370384 17.722883 -425.05761719 17.73388672 C-426.3164119 17.73359467 -427.5752066 17.73330261 -428.87214661 17.73300171 C-432.32020407 17.73242803 -435.76812231 17.74418474 -439.21614742 17.75814962 C-442.82095063 17.77065446 -446.42575706 17.77182729 -450.03057861 17.77420044 C-456.85513307 17.78041593 -463.67962344 17.79682768 -470.50414968 17.81689942 C-478.2743395 17.83925626 -486.04453239 17.85025131 -493.81474638 17.86029029 C-509.79710762 17.88119386 -525.77940492 17.91637118 -541.76171875 17.9609375 C-541.43171875 16.9709375 -541.10171875 15.9809375 -540.76171875 14.9609375 C-541.95796875 15.0434375 -543.15421875 15.1259375 -544.38671875 15.2109375 C-554.75314191 15.17818419 -564.06407239 11.80126305 -571.76171875 4.9609375 C-573.0876083 3.95108866 -574.42016677 2.94988444 -575.76171875 1.9609375 C-577.57421875 0.5859375 -577.57421875 0.5859375 -578.76171875 -1.0390625 C-578.3359375 -3.640625 -578.3359375 -3.640625 -577.76171875 -6.0390625 C-576.33360024 -6.03507544 -576.33360024 -6.03507544 -574.87663084 -6.03100783 C-518.4182262 -5.87400744 -461.95983996 -5.75420087 -405.50126091 -5.68160519 C-398.71853227 -5.67287431 -391.93580411 -5.66379837 -385.15307617 -5.65454102 C-384.47813534 -5.6536257 -383.8031945 -5.65271039 -383.10780091 -5.65176734 C-361.25523943 -5.62197066 -339.40280517 -5.56941613 -317.55032067 -5.50498195 C-294.44461263 -5.43697673 -271.33896546 -5.39506843 -248.23315185 -5.38044304 C-234.39996328 -5.37084988 -220.56714006 -5.34057752 -206.73406398 -5.28364723 C-197.24144452 -5.246576 -187.74901329 -5.23547757 -178.25632674 -5.24455286 C-172.78372518 -5.24902562 -167.31176098 -5.24228766 -161.83927345 -5.20462418 C-156.81908361 -5.17032759 -151.79995409 -5.168987 -146.77971338 -5.19277024 C-144.97321023 -5.19570554 -143.16663839 -5.18702117 -141.36026854 -5.16488022 C-129.42285834 -5.02718862 -120.48976849 -7.03056489 -109.71701323 -12.17217039 C-75.00033299 -27.56402893 -29.53410753 -24.58820435 0 0 Z M-577.76171875 -4.0390625 C-576.76171875 -2.0390625 -576.76171875 -2.0390625 -576.76171875 -2.0390625 Z M-576.76171875 -2.0390625 C-575.76171875 -0.0390625 -575.76171875 -0.0390625 -575.76171875 -0.0390625 Z M-41.13671875 10.8359375 C-42.04137586 13.91177167 -41.63924578 15.88959288 -40.76171875 18.9609375 C-38.29538692 22.56394446 -38.29538692 22.56394446 -34.76171875 24.9609375 C-28.77649073 25.64078683 -28.77649073 25.64078683 -23.82421875 22.5859375 C-20.83194155 18.77758471 -20.38172879 16.8058095 -20.76171875 11.9609375 C-22.42934197 8.46686981 -23.50177897 7.13423069 -26.76171875 4.9609375 C-33.52307866 4.30661235 -36.94026969 5.11350696 -41.13671875 10.8359375 Z M-230.76171875 14.9609375 C-232.95210298 16.33261988 -232.95210298 16.33261988 -234.76171875 17.9609375 C-232.45171875 17.9609375 -230.14171875 17.9609375 -227.76171875 17.9609375 C-227.76171875 17.3009375 -227.76171875 16.6409375 -227.76171875 15.9609375 C-228.75171875 15.6309375 -229.74171875 15.3009375 -230.76171875 14.9609375 Z M-378.76171875 15.9609375 C-377.61906558 19.38889702 -376.9751971 19.77593309 -374.0703125 21.7109375 C-373.29888916 22.23099365 -372.52746582 22.7510498 -371.73266602 23.28686523 C-370.47860962 24.11553101 -370.47860962 24.11553101 -369.19921875 24.9609375 C-367.4464716 26.13911023 -365.69386951 27.31749879 -363.94140625 28.49609375 C-363.06323242 29.08277832 -362.18505859 29.66946289 -361.28027344 30.27392578 C-357.77586515 32.62129504 -354.29768948 35.00562197 -350.82421875 37.3984375 C-349.86563965 38.05706787 -349.86563965 38.05706787 -348.88769531 38.72900391 C-342.70470148 42.98381966 -336.56358269 47.29802922 -330.42114258 51.61108398 C-323.72209647 56.30756827 -316.97920731 60.93724218 -310.20385742 65.52294922 C-305.85611422 68.47785685 -301.67193778 71.53799145 -297.59472656 74.859375 C-295.5467222 76.30433751 -295.5467222 76.30433751 -291.76171875 75.9609375 C-291.55417969 75.17332031 -291.34664063 74.38570312 -291.1328125 73.57421875 C-285.36927406 53.19685479 -273.56141993 36.99245308 -255.03515625 26.5625 C-250.37791468 24.28389732 -245.61904465 22.61221564 -240.6953125 21.00390625 C-237.62727485 20.04747792 -237.62727485 20.04747792 -234.76171875 17.9609375 C-237.07171875 18.2909375 -239.38171875 18.6209375 -241.76171875 18.9609375 C-241.76171875 18.3009375 -241.76171875 17.6409375 -241.76171875 16.9609375 C-242.80258416 16.96232019 -242.80258416 16.96232019 -243.86447716 16.96373081 C-260.73082835 16.98579293 -277.59717498 17.00235242 -294.46353722 17.01274967 C-302.61990247 17.01791104 -310.77625811 17.02495073 -318.93261719 17.03637695 C-326.03977579 17.04632863 -333.14692743 17.05279209 -340.25409281 17.05502599 C-344.01900699 17.05633228 -347.78390124 17.05941295 -351.54880905 17.06666756 C-355.7465784 17.07469101 -359.94431286 17.07492832 -364.14208984 17.07446289 C-365.39724899 17.07805817 -366.65240814 17.08165344 -367.94560242 17.08535767 C-369.65359261 17.08329567 -369.65359261 17.08329567 -371.39608765 17.08119202 C-372.38978048 17.08211381 -373.38347332 17.0830356 -374.40727806 17.08398533 C-376.76171875 16.9609375 -376.76171875 16.9609375 -378.76171875 15.9609375 Z M-84.94140625 24.80859375 C-89.23618899 28.0861911 -93.99542078 30.43723045 -98.76171875 32.9609375 C-100.99242798 34.15319601 -103.2228893 35.34591844 -105.453125 36.5390625 C-111.97788562 40.02688428 -111.97788562 40.02688428 -114.10668945 41.15820312 C-115.82810048 42.07350961 -117.5469065 42.99371007 -119.265625 43.9140625 C-120.27439697 44.45192383 -121.28316895 44.98978516 -122.32250977 45.54394531 C-124.83688603 46.86528211 -124.83688603 46.86528211 -126.76171875 48.9609375 C-127.03886771 51.09345843 -127.03886771 51.09345843 -126.95703125 53.53125 C-126.95058594 54.42714844 -126.94414062 55.32304687 -126.9375 56.24609375 C-126.92074219 57.18324219 -126.90398437 58.12039063 -126.88671875 59.0859375 C-126.87769531 60.03082031 -126.86867188 60.97570312 -126.859375 61.94921875 C-126.83576397 64.28671042 -126.80283391 66.62369873 -126.76171875 68.9609375 C-126.10171875 69.2909375 -125.44171875 69.6209375 -124.76171875 69.9609375 C-122.06394164 68.68679235 -122.06394164 68.68679235 -118.99609375 66.796875 C-118.41462082 66.45321899 -117.83314789 66.10956299 -117.23405457 65.75549316 C-115.32206129 64.62311184 -113.41699254 63.47958207 -111.51171875 62.3359375 C-110.19389483 61.5527836 -108.87561339 60.77039907 -107.55688477 59.98876953 C-104.89042032 58.40679744 -102.22655826 56.82058291 -99.56494141 55.23046875 C-94.28820708 52.07891311 -88.99294883 48.95882716 -83.69921875 45.8359375 C-81.92697783 44.78793881 -80.15483708 43.7397707 -78.3828125 42.69140625 C-74.68036812 40.50247874 -70.97462077 38.31958257 -67.26171875 36.1484375 C-66.37871094 35.63152344 -65.49570312 35.11460937 -64.5859375 34.58203125 C-62.3908191 33.32203936 -60.18679065 32.08960949 -57.96875 30.87109375 C-57.32164062 30.51184814 -56.67453125 30.15260254 -56.0078125 29.7824707 C-54.74786478 29.08424967 -53.48369482 28.39357741 -52.21484375 27.71166992 C-48.51337178 25.71957427 -48.51337178 25.71957427 -46.76171875 21.9609375 C-58.54978859 18.66027795 -74.85968171 16.99952915 -84.94140625 24.80859375 Z M-251.76171875 60.9609375 C-260.3579589 70.51453154 -264.64610182 82.17203782 -264.796875 94.9375 C-263.934446 110.88191913 -257.88546178 122.55906552 -246.57421875 133.5 C-242.1990686 137.32825638 -237.4625197 140.51073382 -232.62011719 143.71435547 C-229.14417093 146.04596104 -225.73864932 148.47806225 -222.32421875 150.8984375 C-221.60250488 151.40858398 -220.88079102 151.91873047 -220.13720703 152.44433594 C-212.21711056 158.04483571 -204.31822359 163.67556992 -196.44921875 169.34765625 C-188.91496786 174.7676258 -181.29688802 180.04909809 -173.59692383 185.23168945 C-168.75249197 188.51479946 -164.17858758 191.97801024 -159.70043945 195.74926758 C-159.06066162 196.14911865 -158.42088379 196.54896973 -157.76171875 196.9609375 C-156.77171875 196.6309375 -155.78171875 196.3009375 -154.76171875 195.9609375 C-154.65940802 189.07833713 -154.58987526 182.19593638 -154.54199219 175.31274414 C-154.52200834 172.97640657 -154.49481187 170.64011817 -154.45996094 168.30395508 C-154.21716719 151.59760329 -154.08422194 137.69315124 -164.76171875 123.9609375 C-165.50421875 122.9503125 -166.24671875 121.9396875 -167.01171875 120.8984375 C-174.48738316 112.35482103 -184.90858047 106.36784386 -194.21875 100.05859375 C-198.51935823 97.13916433 -202.7320012 94.11649347 -206.91796875 91.03515625 C-210.54706952 88.3881061 -214.21494663 85.79833657 -217.88671875 83.2109375 C-218.60263184 82.70618896 -219.31854492 82.20144043 -220.05615234 81.68139648 C-223.85394841 79.00538888 -227.65476101 76.333708 -231.45703125 73.6640625 C-232.21999512 73.12749023 -232.98295898 72.59091797 -233.76904297 72.03808594 C-235.2254165 71.0138999 -236.68272098 69.99103592 -238.14111328 68.96972656 C-241.04097332 66.92947544 -243.8379397 64.89706519 -246.55859375 62.6171875 C-248.70200306 60.66048418 -248.70200306 60.66048418 -251.76171875 60.9609375 Z " fill="#000000" transform="translate(631.76171875,308.0390625)"/>
<path d="M0 0 C1.66615819 0.04116646 3.33448422 0.0619272 5 0 C4.67 0.66 4.34 1.32 4 2 C4.58040039 2.11480713 5.16080078 2.22961426 5.75878906 2.34790039 C18.36358065 4.86075668 30.8961552 7.60980511 43.375 10.6875 C44.59864258 10.98470947 45.82228516 11.28191895 47.08300781 11.58813477 C48.21834961 11.87229248 49.35369141 12.1564502 50.5234375 12.44921875 C52.0381665 12.82566528 52.0381665 12.82566528 53.58349609 13.2097168 C56 14 56 14 58 16 C56.331082 15.97549019 56.331082 15.97549019 54.62844849 15.95048523 C44.06772967 15.80405145 33.50844064 15.72776519 22.9466877 15.71759319 C17.51829791 15.71017961 12.09229069 15.67930967 6.66455078 15.59204102 C1.41166141 15.50849313 -3.83800708 15.49020694 -9.091465 15.51441383 C-11.08074059 15.51264194 -13.0701435 15.48858673 -15.05883408 15.44031334 C-30.14026243 15.09601412 -38.82086716 18.62099794 -50.24050617 28.49450016 C-52.48168881 30.41215401 -54.84157101 32.13360897 -57.24609375 33.83984375 C-58.64390836 34.87147619 -60.04106412 35.90400205 -61.4375 36.9375 C-63.02080017 38.10681574 -64.60413457 39.27608513 -66.1875 40.4453125 C-66.97640625 41.02829102 -67.7653125 41.61126953 -68.578125 42.21191406 C-71.05020627 44.03706762 -73.52471201 45.8588857 -76 47.6796875 C-86.18690013 55.17364787 -86.18690013 55.17364787 -96.3125 62.75 C-100.35284908 65.791423 -104.43926133 68.75991263 -108.5625 71.6875 C-121.53715364 80.90021768 -134.29767737 90.41621167 -147 100 C-148.99203927 94.38007465 -146.17147811 89.23183051 -144 84 C-136.78880651 69.10661164 -127.09131568 60.4170227 -113 52 C-112.14019531 51.48324707 -111.28039062 50.96649414 -110.39453125 50.43408203 C-100.3683696 44.4194338 -90.2930812 38.54714253 -80 33 C-78.102857 31.97397235 -76.20572169 30.94793048 -74.30859375 29.921875 C-73.3537207 29.40608887 -72.39884766 28.89030273 -71.41503906 28.35888672 C-60.1386177 22.26624445 -60.1386177 22.26624445 -48.91430664 16.07836914 C-47.47496502 15.27808546 -46.03274017 14.4829649 -44.58764648 13.69311523 C-40.67013481 11.54203876 -36.8536954 9.29486465 -33.078125 6.90234375 C-21.33399347 -0.3496207 -13.58666436 -2.20979326 0 0 Z " fill="#000000" transform="translate(669,329)"/>
<path d="M0 0 C0.66 0 1.32 0 2 0 C2 6.27 2 12.54 2 19 C1.34 19 0.68 19 0 19 C0 12.73 0 6.46 0 0 Z " fill="#000000" transform="translate(506,357)"/>
<path d="M0 0 C0.33 0 0.66 0 1 0 C1 38.61 1 77.22 1 117 C0.67 117 0.34 117 0 117 C0 78.39 0 39.78 0 0 Z " fill="#000000" transform="translate(335,407)"/>
<path d="M0 0 C0.33 0 0.66 0 1 0 C1.02278997 30.17537544 1.04049797 60.35075059 1.05106533 90.52613273 C1.05231611 94.08488603 1.05361042 97.64363931 1.05493164 101.20239258 C1.05519395 101.91090597 1.05545626 102.61941936 1.05572652 103.34940285 C1.0600833 114.83651418 1.06797089 126.32362053 1.0771528 137.8107289 C1.08648913 149.58885267 1.09205557 161.36697382 1.09408849 173.14510113 C1.09539605 179.76435114 1.09848473 186.38358983 1.10573006 193.00283623 C1.11248612 199.22514513 1.11461781 205.44743799 1.11310768 211.66975021 C1.1133842 213.96077499 1.11539176 216.25180027 1.11920547 218.54282188 C1.12413627 221.65600437 1.12300057 224.76912523 1.12025452 227.88230896 C1.12316736 228.80155086 1.1260802 229.72079277 1.12908131 230.66789049 C1.11412121 236.88587879 1.11412121 236.88587879 0 238 C-2.41584646 238.1135051 -4.80194801 238.16418243 -7.21875 238.16796875 C-8.31660828 238.17296135 -8.31660828 238.17296135 -9.43664551 238.17805481 C-10.99356456 238.18313136 -12.55049455 238.18546291 -14.10742188 238.18530273 C-16.46243 238.1874655 -18.81695136 238.20554618 -21.171875 238.22460938 C-28.68231389 238.2519037 -35.72691155 238.11019653 -43 236 C-43 235.67 -43 235.34 -43 235 C-42.31421875 235.0721875 -41.6284375 235.144375 -40.921875 235.21875 C-27.51417262 236.40761031 -14.65432425 236 -1 236 C-0.67 158.12 -0.34 80.24 0 0 Z " fill="#000000" transform="translate(506,430)"/>
<path d="M0 0 C0.33 0 0.66 0 1 0 C1 15.51 1 31.02 1 47 C0.34 46.67 -0.32 46.34 -1 46 C-0.67 30.82 -0.34 15.64 0 0 Z " fill="#000000" transform="translate(475,456)"/>
</svg>
