<?xml version="1.0" encoding="UTF-8"?>
<svg version="1.1" xmlns="http://www.w3.org/2000/svg" width="240" height="240">
<path d="M0 0 C3.3 0 6.6 0 10 0 C10 21.45 10 42.9 10 65 C7.03 65 4.06 65 1 65 C0.67 63.35 0.34 61.7 0 60 C-0.86625 60.928125 -0.86625 60.928125 -1.75 61.875 C-6.53854765 66.39751723 -10.69537681 66.38195779 -17.09375 66.2421875 C-23.50992871 65.70750594 -26.72775997 62.59473423 -30.703125 57.9140625 C-34.71256083 51.99652166 -34.70353617 45.92103705 -34 39 C-32.03064812 31.53660394 -28.34592548 27.5351232 -21.75 23.6875 C-16.14583307 22.28645827 -10.88945905 22.25771252 -5.5 24.375 C-3 26 -3 26 -1 28 C-0.67 18.76 -0.34 9.52 0 0 Z M-22.8125 37.125 C-24.48087822 41.16423148 -24.69030273 44.69129724 -24 49 C-21.91108539 53.10322512 -20.23469879 55.27819939 -16 57 C-12.24853395 57.6479805 -8.60134187 57.81929119 -5.15234375 56.0546875 C-1.89812218 53.51207703 0.15645584 51.03026656 1 47 C1.06095263 42.72460839 0.48544517 39.77001647 -1.8125 36.125 C-5.31685219 32.72077215 -6.98122782 32.08085493 -11.9375 31.6875 C-16.84909388 31.83356971 -19.61291594 33.37376352 -22.8125 37.125 Z " fill="#000000" transform="translate(206,87)"/>
<path d="M0 0 C33.57142857 0 33.57142857 0 40 5.625 C42.48478758 9.81807904 43.2881051 13.14586554 43 18 C41.2745821 23.27774887 38.2960139 25.75412283 34 29 C34.9075 29.391875 35.815 29.78375 36.75 30.1875 C40.73155182 32.40798082 42.96930008 34.93860016 45 39 C45.76038689 45.81855126 45.2542913 50.54578038 41 56 C29.14834413 65.0193576 14.50344956 61 0 61 C0 40.87 0 20.74 0 0 Z M11 9 C11 14.28 11 19.56 11 25 C13.536875 25.103125 16.07375 25.20625 18.6875 25.3125 C19.47729248 25.35802002 20.26708496 25.40354004 21.08081055 25.45043945 C25.17759491 25.53072793 26.62077771 25.2958331 29.984375 22.671875 C32.21176459 20.13434692 32.21176459 20.13434692 32.5625 16.9375 C31.87808796 13.36334823 30.85181131 12.19996872 28 10 C22.57364835 8.19121612 16.66885438 8.94799216 11 9 Z M11 34 C11 39.94 11 45.88 11 52 C13.68125 52.0825 16.3625 52.165 19.125 52.25 C19.95789551 52.28641602 20.79079102 52.32283203 21.64892578 52.36035156 C26.89753078 52.43799735 29.84890043 51.49157908 34 48 C35.44430855 45.11138291 35.37688506 43.20352299 35 40 C32.44975635 36.89835231 30.82300753 35.27433584 27 34 C24.25917841 33.92943302 21.55153023 33.90663846 18.8125 33.9375 C16.234375 33.958125 13.65625 33.97875 11 34 Z " fill="#000000" transform="translate(74,91)"/>
<path d="M0 0 C2 1.6875 2 1.6875 3 4 C2.92290543 7.16087718 2.42956578 8.52270469 0.3125 10.875 C-2.86249229 12.41959084 -4.66802549 12.0140792 -8 11 C-10.15502531 7.76746204 -10.46856135 6.74849077 -10 3 C-7.6631004 -0.98647579 -4.22387479 -0.52798435 0 0 Z " fill="#000000" transform="translate(135,91)"/>
<path d="M0 0 C5.24731297 3.12820581 8.35472644 6.69931609 10.625 12.375 C11.25 15.9375 11.25 15.9375 11.25 23.9375 C0.69 23.9375 -9.87 23.9375 -20.75 23.9375 C-18.18978385 29.6873721 -18.18978385 29.6873721 -13.75 32.9375 C-8.80432899 33.8301333 -4.87989783 33.66063461 -0.625 30.9375 C-0.00625 30.2775 0.6125 29.6175 1.25 28.9375 C4.61591866 30.38003657 6.76047079 32.27014727 9.25 34.9375 C2.84104099 40.73608197 -2.31923816 42.39947083 -11.0078125 42.17578125 C-17.33414585 41.62605713 -21.24847088 39.83418523 -25.625 35.1875 C-30.08079032 29.63552436 -31.46930993 24.01071426 -30.75 16.9375 C-28.88265775 10.17899425 -26.67274529 5.7698646 -20.75 1.9375 C-13.87192092 -1.8983518 -7.46285174 -2.11447466 0 0 Z M-17.75 8.9375 C-19.966452 11.89276934 -20.75 13.22496836 -20.75 16.9375 C-13.49 16.9375 -6.23 16.9375 1.25 16.9375 C0.74111005 11.31869896 0.74111005 11.31869896 -1.3125 8.625 C-6.88208824 4.76913122 -12.34198985 5.16446966 -17.75 8.9375 Z " fill="#000000" transform="translate(55.75,111.0625)"/>
<path d="M0 0 C0 3.3 0 6.6 0 10 C-2.44140625 10.09765625 -4.8828125 10.1953125 -7.32421875 10.29296875 C-11.37499916 11.36332095 -12.6274587 12.49131217 -15 16 C-15.75627366 20.43383971 -15.79076122 24.82223454 -15.8125 29.3125 C-15.83763672 30.53001953 -15.86277344 31.74753906 -15.88867188 33.00195312 C-15.94748901 36.00162687 -15.98381039 38.99984298 -16 42 C-19.3 42 -22.6 42 -26 42 C-26 28.47 -26 14.94 -26 1 C-22.7 1 -19.4 1 -16 1 C-15.67 2.32 -15.34 3.64 -15 5 C-14.21625 4.360625 -13.4325 3.72125 -12.625 3.0625 C-8.1481296 -0.45504103 -5.56678145 -0.0897868 0 0 Z " fill="#000000" transform="translate(171,110)"/>
<path d="M0 0 C3.3 0 6.6 0 10 0 C10 13.53 10 27.06 10 41 C6.7 41 3.4 41 0 41 C0 27.47 0 13.94 0 0 Z " fill="#000000" transform="translate(126,111)"/>
</svg>
