<?xml version="1.0" encoding="UTF-8"?>
<svg version="1.1" xmlns="http://www.w3.org/2000/svg" width="512" height="512">
<path d="M0 0 C6.96062046 2.02103063 13.1088429 4.93086069 19.4375 8.4375 C20.39180908 8.9631958 21.34611816 9.4888916 22.3293457 10.03051758 C35.72128762 17.51650956 48.44393782 25.88383056 60 36 C60.84820312 36.72703125 61.69640625 37.4540625 62.5703125 38.203125 C85.2956917 58.07914473 101.84730682 86.77561505 109 116.0625 C109.20786133 116.90643311 109.41572266 117.75036621 109.62988281 118.61987305 C112.75245571 132.49508859 112.75245571 132.49508859 110 138 C105.96246728 137.46588306 104.17421013 135.49680191 101.40234375 132.625 C100.51740234 131.72136719 99.63246094 130.81773437 98.72070312 129.88671875 C97.79225101 128.92517168 96.86451849 127.96292928 95.9375 127 C88.97548401 119.80138621 81.86183771 113.2058678 74 107 C72.7453093 105.97520557 71.49242662 104.94818937 70.2421875 103.91796875 C63.69920752 98.59359263 57.03977286 93.52129753 50.125 88.6875 C49.403125 88.18275146 48.68125 87.67800293 47.9375 87.15795898 C47.24140625 86.67141846 46.5453125 86.18487793 45.828125 85.68359375 C17.70698896 66.01659671 5.96557817 32.86846869 0 0 Z " fill="#000000" transform="translate(215,100)"/>
<path d="M0 0 C10.43206718 0.54357321 20.58507817 1.82795993 30.875 3.5625 C32.0386911 3.75749084 32.0386911 3.75749084 33.22589111 3.9564209 C68.39113971 9.90934973 102.68454889 19.76342122 135 35 C136.37526855 35.64340332 136.37526855 35.64340332 137.77832031 36.29980469 C164.11019934 48.72432543 188.3053611 64.58252055 210 84 C210.74064697 84.65234619 211.48129395 85.30469238 212.24438477 85.97680664 C219.22744493 92.1728881 225.79922887 98.72467113 232.35083008 105.37133789 C233.72013853 106.75867917 235.09244761 108.14305682 236.46484375 109.52734375 C237.265271 110.33937256 238.06569824 111.15140137 238.89038086 111.98803711 C241.79373041 114.75698789 243.22430503 115.98536425 247.3125 116.0625 C254.48760119 113.99509796 257.42292861 107.37306955 261.1875 101.375 C273.02767166 82.58849382 287.85746144 69.87724181 309.5859375 63.54296875 C328.73569763 59.23582205 351.69451498 60.88120027 370 68 C368.72548955 71.82353136 367.27807997 72.33115028 363.9375 74.5 C343.24377578 89.20837986 339.99268391 118.70766124 335.59594727 141.96826172 C326.39073777 190.35670811 300.6744352 230.83615211 260 259 C254.20137546 262.71031311 248.15578479 265.92744422 242 269 C241.27200195 269.36464355 240.54400391 269.72928711 239.79394531 270.10498047 C222.78670369 278.47224032 204.72533626 283.34757393 186 286 C184.63488281 286.19722656 184.63488281 286.19722656 183.2421875 286.3984375 C156.1822434 289.53705171 128.44763071 285.43090248 103 276 C103 275.67 103 275.34 103 275 C104.22332031 274.79246094 105.44664062 274.58492188 106.70703125 274.37109375 C143.35584043 267.81041385 175.5674738 249.15724387 198.8125 219.875 C199.49723389 219.01394653 199.49723389 219.01394653 200.19580078 218.13549805 C206.6241179 209.97830631 206.6241179 209.97830631 208 200 C205.60123356 198.80061678 204.18785203 198.90339599 201.51293945 198.94995117 C200.58048904 198.96293747 199.64803864 198.97592377 198.68733215 198.98930359 C197.16567696 199.01586784 197.16567696 199.01586784 195.61328125 199.04296875 C193.45508769 199.06539329 191.29688384 199.08684463 189.13867188 199.10742188 C185.74442448 199.14421787 182.3507082 199.18682451 178.95678711 199.24682617 C162.83515124 199.51846583 148.52283084 199.09182682 133.9375 191.4375 C133.27886963 191.09726807 132.62023926 190.75703613 131.94165039 190.40649414 C111.4081255 179.37006317 95.5829331 160.50376764 82 142 C91.41844336 139.03491064 100.94291258 137.67076221 110.6875 136.3125 C112.27548165 136.08592351 113.86337318 135.85871445 115.45117188 135.63085938 C119.29978258 135.0799516 123.14950633 134.53758239 127 134 C125.19982422 133.50693359 125.19982422 133.50693359 123.36328125 133.00390625 C93.55168517 124.5999272 58.9536004 109.70772381 41.75 82.25 C41.1725 81.1775 40.595 80.105 40 79 C46.26255626 76.31604732 51.80844569 75.85772427 58.58203125 75.90234375 C59.80329964 75.90446617 59.80329964 75.90446617 61.04924011 75.90663147 C63.63703156 75.91220683 66.22473492 75.92475476 68.8125 75.9375 C70.57226437 75.94251819 72.33203011 75.94708054 74.09179688 75.95117188 C78.39456494 75.96216819 82.69726756 75.97941579 87 76 C83.14815842 72.84923781 79.20138508 70.31003479 74.875 67.875 C57.64155905 57.94307546 40.23041091 46.81636884 25 34 C24.48985352 33.57203125 23.97970703 33.1440625 23.45410156 32.703125 C13.23636034 24.03579058 3.05180139 13.48125856 0 0 Z M310 80 C308.54852097 82.90295805 308.62760975 84.77261779 309 88 C311.34484592 91.65520099 312.8724727 93.60066741 317 95.0625 C321.47697606 94.96922967 323.71334162 93.28665838 326.8125 90.1875 C328.43669618 87.19555967 328.48032165 85.36225157 328 82 C326.20006226 79.30009338 324.916227 77.4581135 322 76 C316.49976158 75.48110958 313.93195499 76.06804501 310 80 Z " fill="#000000" transform="translate(76,137)"/>
</svg>
